<svg width="29" height="29" viewBox="0 0 29 29" fill="none" xmlns="http://www.w3.org/2000/svg">
<path fill-rule="evenodd" clip-rule="evenodd" d="M14.6913 8.31623C15.8146 8.31623 17.9208 6.75457 20.1384 6.98231C21.0665 7.0217 23.6709 7.36417 25.3439 9.85908C25.2104 9.94812 22.2343 11.7136 22.2702 15.39C22.3079 19.7839 26.046 21.2428 26.0888 21.2651C26.0545 21.3644 25.4912 23.3473 24.1179 25.3953C22.9312 27.1642 21.7017 28.9245 19.7633 28.9604C17.8575 28.9981 17.2445 27.808 15.0646 27.808C12.8865 27.808 12.2067 28.9245 10.4019 28.9981C8.53028 29.07 7.1056 27.0871 5.91036 25.3251C3.46512 21.7172 1.59694 15.1348 4.10555 10.6913C5.35044 8.48405 7.57649 7.08677 9.99435 7.05081C11.8317 7.01656 13.568 8.31623 14.6913 8.31623ZM20.6587 0C20.8556 1.66955 20.1348 3.34595 19.0714 4.55315C18.0029 5.75866 16.2545 6.69704 14.5405 6.57031C14.3093 4.93159 15.174 3.22951 16.1604 2.15757C17.2631 0.952076 19.1245 0.0582266 20.6587 0Z" fill="#25272C"/>
</svg>
