<svg width="28" height="28" viewBox="0 0 28 28" fill="none" xmlns="http://www.w3.org/2000/svg">
<path fill-rule="evenodd" clip-rule="evenodd" d="M6.02421 14.0001C6.02421 13.1109 6.17189 12.2585 6.43546 11.4589L1.82199 7.93591C0.922845 9.76151 0.41626 11.8186 0.41626 14.0001C0.41626 16.1797 0.922222 18.2356 1.82012 20.0599L6.4311 16.53C6.17002 15.7342 6.02421 14.8849 6.02421 14.0001Z" fill="#FBBC05"/>
<path fill-rule="evenodd" clip-rule="evenodd" d="M14.1246 5.91116C16.0562 5.91116 17.8009 6.5956 19.1717 7.7156L23.1596 3.73338C20.7295 1.61782 17.614 0.311157 14.1246 0.311157C8.70728 0.311157 4.05143 3.4092 1.82196 7.93587L6.43544 11.4589C7.49846 8.23205 10.5286 5.91116 14.1246 5.91116Z" fill="#EB4335"/>
<path fill-rule="evenodd" clip-rule="evenodd" d="M14.1246 22.089C10.5286 22.089 7.49846 19.7681 6.43544 16.5413L1.82196 20.0637C4.05143 24.591 8.70728 27.689 14.1246 27.689C17.4682 27.689 20.6603 26.5018 23.0562 24.2773L18.677 20.8918C17.4414 21.6702 15.8855 22.089 14.1246 22.089Z" fill="#34A853"/>
<path fill-rule="evenodd" clip-rule="evenodd" d="M27.2098 14C27.2098 13.1911 27.0852 12.32 26.8982 11.5111H14.1246V16.8H21.4772C21.1096 18.6032 20.1089 19.9895 18.677 20.8917L23.0562 24.2772C25.5729 21.9414 27.2098 18.462 27.2098 14Z" fill="#4285F4"/>
</svg>
