<svg width="20" height="20" viewBox="0 0 20 20" fill="none" xmlns="http://www.w3.org/2000/svg">
<path fill-rule="evenodd" clip-rule="evenodd" d="M7.99372 4.13128C8.33543 4.47299 8.33543 5.02701 7.99372 5.36872L5.98744 7.375H10.875C14.2577 7.375 17 10.1173 17 13.5V15.25C17 15.7333 16.6082 16.125 16.125 16.125C15.6418 16.125 15.25 15.7333 15.25 15.25V13.5C15.25 11.0838 13.2912 9.125 10.875 9.125H5.98744L7.99372 11.1313C8.33543 11.473 8.33543 12.027 7.99372 12.3687C7.65201 12.7104 7.09799 12.7104 6.75628 12.3687L3.25628 8.86872C2.91457 8.52701 2.91457 7.97299 3.25628 7.63128L6.75628 4.13128C7.09799 3.78957 7.65201 3.78957 7.99372 4.13128Z" fill="#25272C"/>
</svg>
