<svg width="175" height="28" viewBox="0 0 175 28" fill="none" xmlns="http://www.w3.org/2000/svg">
<path d="M22.098 0.818181V27H17.8793L5.54261 9.16619H5.32528V27H0.582386V0.818181H4.8267L17.1506 18.6648H17.3807V0.818181H22.098ZM35.3946 27.3835C33.4259 27.3835 31.7256 26.9744 30.2938 26.1562C28.8705 25.3295 27.7753 24.1619 27.0083 22.6534C26.2412 21.1364 25.8577 19.3509 25.8577 17.2969C25.8577 15.277 26.2412 13.5043 27.0083 11.9787C27.7838 10.4446 28.8662 9.25142 30.2554 8.39915C31.6446 7.53835 33.2767 7.10795 35.1517 7.10795C36.3619 7.10795 37.504 7.30398 38.5779 7.69602C39.6602 8.07954 40.6148 8.67614 41.4415 9.4858C42.2767 10.2955 42.933 11.3267 43.4102 12.5795C43.8875 13.8239 44.1262 15.3068 44.1262 17.0284V18.4474H28.031V15.3281H39.6901C39.6815 14.4418 39.4898 13.6534 39.1148 12.9631C38.7398 12.2642 38.2156 11.7145 37.5423 11.3139C36.8776 10.9134 36.102 10.7131 35.2156 10.7131C34.2696 10.7131 33.4387 10.9432 32.7227 11.4034C32.0068 11.8551 31.4486 12.4517 31.048 13.1932C30.656 13.9261 30.4557 14.7315 30.4472 15.6094V18.3324C30.4472 19.4744 30.656 20.4545 31.0736 21.2727C31.4912 22.0824 32.075 22.7045 32.825 23.1392C33.575 23.5653 34.4529 23.7784 35.4585 23.7784C36.1318 23.7784 36.7412 23.6847 37.2867 23.4972C37.8321 23.3011 38.3051 23.0156 38.7057 22.6406C39.1063 22.2656 39.4088 21.8011 39.6134 21.2472L43.9344 21.733C43.6617 22.875 43.1418 23.8722 42.3747 24.7244C41.6162 25.5682 40.6446 26.2244 39.46 26.6932C38.2753 27.1534 36.9202 27.3835 35.3946 27.3835ZM51.0435 7.36364L55.0066 14.6122L59.0336 7.36364H63.9299L58.0108 17.1818L64.0321 27H59.1614L55.0066 19.9304L50.8901 27H45.981L51.9639 17.1818L46.1344 7.36364H51.0435ZM79.665 18.7415V7.36364H84.2929V27H79.8057V23.5099H79.6011C79.1579 24.6094 78.4292 25.5085 77.415 26.2074C76.4093 26.9062 75.1693 27.2557 73.6949 27.2557C72.4079 27.2557 71.2701 26.9702 70.2815 26.3991C69.3014 25.8196 68.5343 24.9801 67.9804 23.8807C67.4264 22.7727 67.1494 21.4347 67.1494 19.8665V7.36364H71.7772V19.1506C71.7772 20.3949 72.1182 21.3835 72.8 22.1165C73.4818 22.8494 74.3767 23.2159 75.4846 23.2159C76.1664 23.2159 76.827 23.0497 77.4662 22.7173C78.1054 22.3849 78.6295 21.8906 79.0386 21.2344C79.4562 20.5696 79.665 19.7386 79.665 18.7415ZM104.212 12.554L99.9929 13.0142C99.8736 12.5881 99.6648 12.1875 99.3665 11.8125C99.0767 11.4375 98.6846 11.1349 98.1903 10.9048C97.696 10.6747 97.0909 10.5597 96.375 10.5597C95.4119 10.5597 94.6023 10.7685 93.946 11.1861C93.2983 11.6037 92.9787 12.1449 92.9872 12.8097C92.9787 13.3807 93.1875 13.8452 93.6136 14.2031C94.0483 14.5611 94.7642 14.8551 95.7613 15.0852L99.1108 15.8011C100.969 16.2017 102.349 16.8366 103.253 17.706C104.165 18.5753 104.625 19.7131 104.634 21.1193C104.625 22.3551 104.263 23.446 103.547 24.392C102.839 25.3295 101.855 26.0625 100.594 26.5909C99.3324 27.1193 97.8835 27.3835 96.2471 27.3835C93.8437 27.3835 91.9091 26.8807 90.4432 25.875C88.9773 24.8608 88.1037 23.4503 87.8224 21.6435L92.3352 21.2088C92.5398 22.0952 92.9744 22.7642 93.6392 23.2159C94.304 23.6676 95.169 23.8935 96.2344 23.8935C97.3338 23.8935 98.2159 23.6676 98.8807 23.2159C99.554 22.7642 99.8906 22.206 99.8906 21.5412C99.8906 20.9787 99.6733 20.5142 99.2386 20.1477C98.8125 19.7812 98.1477 19.5 97.2443 19.304L93.8949 18.6009C92.0113 18.2088 90.6179 17.5483 89.7145 16.6193C88.8111 15.6818 88.3636 14.4972 88.3721 13.0653C88.3636 11.8551 88.6917 10.8068 89.3565 9.92045C90.0298 9.02557 90.9631 8.33523 92.1562 7.84943C93.3579 7.35511 94.7429 7.10795 96.3111 7.10795C98.6122 7.10795 100.423 7.59801 101.744 8.57812C103.074 9.55824 103.896 10.8835 104.212 12.554Z" fill="#F29145"/>
<path d="M108.294 27V0.818181H113.037V11.902H125.169V0.818181H129.925V27H125.169V15.8778H113.037V27H108.294ZM147.034 18.7415V7.36364H151.662V27H147.175V23.5099H146.97C146.527 24.6094 145.798 25.5085 144.784 26.2074C143.779 26.9062 142.539 27.2557 141.064 27.2557C139.777 27.2557 138.639 26.9702 137.651 26.3991C136.671 25.8196 135.904 24.9801 135.35 23.8807C134.796 22.7727 134.519 21.4347 134.519 19.8665V7.36364H139.146V19.1506C139.146 20.3949 139.487 21.3835 140.169 22.1165C140.851 22.8494 141.746 23.2159 142.854 23.2159C143.536 23.2159 144.196 23.0497 144.835 22.7173C145.475 22.3849 145.999 21.8906 146.408 21.2344C146.825 20.5696 147.034 19.7386 147.034 18.7415ZM156.266 27V0.818181H160.893V10.6108H161.085C161.324 10.1335 161.66 9.62642 162.095 9.08949C162.53 8.54403 163.118 8.07954 163.859 7.69602C164.601 7.30398 165.547 7.10795 166.697 7.10795C168.214 7.10795 169.582 7.49574 170.801 8.27131C172.028 9.03835 173 10.1761 173.716 11.6847C174.44 13.1847 174.802 15.0256 174.802 17.2074C174.802 19.3636 174.449 21.196 173.741 22.7045C173.034 24.2131 172.071 25.3636 170.852 26.1562C169.633 26.9489 168.253 27.3452 166.71 27.3452C165.585 27.3452 164.652 27.1577 163.91 26.7827C163.169 26.4077 162.572 25.956 162.121 25.4276C161.677 24.8906 161.332 24.3835 161.085 23.9062H160.817V27H156.266ZM160.804 17.1818C160.804 18.4517 160.983 19.5639 161.341 20.5185C161.707 21.473 162.231 22.2187 162.913 22.7557C163.604 23.2841 164.439 23.5483 165.419 23.5483C166.442 23.5483 167.298 23.2756 167.989 22.7301C168.679 22.1761 169.199 21.4219 169.548 20.4673C169.906 19.5043 170.085 18.4091 170.085 17.1818C170.085 15.9631 169.91 14.8807 169.561 13.9347C169.212 12.9886 168.692 12.2472 168.001 11.7102C167.311 11.1733 166.45 10.9048 165.419 10.9048C164.43 10.9048 163.591 11.1648 162.9 11.6847C162.21 12.2045 161.686 12.9332 161.328 13.8707C160.979 14.8082 160.804 15.9119 160.804 17.1818Z" fill="#FCFCFC"/>
</svg>
