<svg width="24" height="24" viewBox="0 0 24 24" fill="none" xmlns="http://www.w3.org/2000/svg">
<path d="M19.164 19.547C17.523 17.047 15.495 16.262 13 16.063V17.5C13 18.034 12.792 18.536 12.414 18.914C11.658 19.67 10.337 19.665 9.59099 18.919L3.29799 12.712C3.20351 12.619 3.12847 12.5081 3.07726 12.3857C3.02604 12.2634 2.99966 12.1321 2.99966 11.9995C2.99966 11.8669 3.02604 11.7356 3.07726 11.6133C3.12847 11.491 3.20351 11.3801 3.29799 11.287L9.58599 5.08402C10.34 4.32902 11.659 4.32802 12.415 5.08502C12.792 5.46302 13 5.96502 13 6.49902V8.20302C17.619 9.13602 21 13.2 21 17.999V18.999C21.0006 19.2146 20.9314 19.4245 20.8029 19.5975C20.6743 19.7705 20.4932 19.8973 20.2867 19.9589C20.0802 20.0206 19.8593 20.0138 19.6569 19.9395C19.4546 19.8653 19.2817 19.7276 19.164 19.547ZM12.023 14.011C14.23 14.067 16.661 14.405 18.781 16.132C18.3984 14.5319 17.5308 13.0891 16.297 12.0008C15.0632 10.9125 13.5233 10.2319 11.888 10.052C11.384 9.99602 11 10 11 10V6.50302L5.42399 11.999L11 17.499V14L12.023 14.011Z" fill="#262626"/>
</svg>
