<svg width="106" height="94" viewBox="0 0 106 94" fill="none" xmlns="http://www.w3.org/2000/svg">
<g clip-path="url(#clip0_910_15259)">
<path d="M105.906 86.3203C102.314 88.8501 98.7211 91.3802 95.1279 93.9107C95.1063 93.7115 95.0844 93.5124 95.0621 93.3133L99.9088 89.8892L105.463 85.9645L105.906 86.3203Z" fill="#E16259"/>
<path d="M100.051 12.2231C101.371 14.3897 103.076 14.9142 102.832 15.5338C102.515 16.3248 99.4306 16.6051 97.9998 15.13C96.6097 13.6945 97.2158 11.0338 96.0305 10.6862C95.7914 10.6273 95.5392 10.6507 95.3151 10.7526C95.2794 10.3447 95.1627 9.94796 94.9718 9.58525C94.781 9.22253 94.5197 8.90109 94.2031 8.63953C96.3771 6.57899 97.4373 6.47481 98.0025 6.72558C99.1878 7.25385 98.4066 9.52274 100.051 12.2231Z" fill="#E16259"/>
<path d="M100.902 77.677C101.413 78.7022 101.923 79.7268 102.433 80.7507C102.049 81.5611 101.472 82.2653 100.751 82.8017C100.029 83.3381 99.187 83.6903 98.2972 83.8273L96.1491 80.5636C98.0458 80.2411 99.7463 79.2081 100.901 77.677H100.902Z" fill="#E16259"/>
<path d="M99.7429 69.799C99.8232 70.2821 99.9054 70.7627 99.9894 71.2409C99.3787 71.4317 98.7087 71.6263 97.9812 71.8125C95.7337 72.3893 93.4386 72.7639 91.1236 72.9317C90.1969 73 89.2369 73.0377 88.2379 73.0368C83.809 73.0291 79.4138 72.2708 75.2409 70.7947L74.8072 70.6379C74.8405 70.1579 74.8773 69.6724 74.9174 69.1813C82.9029 72.0777 91.6218 72.2946 99.7429 69.799Z" fill="#E16259"/>
<path d="M77.3334 53.4815C77.3952 53.208 77.457 52.9367 77.5187 52.6674C79.0538 52.6602 80.5692 52.3227 81.9608 51.678C83.3524 51.0333 84.5874 50.0968 85.581 48.9327C85.5965 46.6395 85.6039 44.3328 85.6033 42.0126C85.6033 39.9309 85.5959 37.8596 85.581 35.7987L84.5394 34.9441C84.663 33.0824 84.7835 31.2213 84.9009 29.3608C84.9824 28.0701 85.0621 26.7794 85.1399 25.4887C85.1195 25.2121 85.101 24.9355 85.0825 24.6589C85.8569 25.1433 86.7451 25.418 87.6591 25.4558C88.5731 25.4936 89.4811 25.2933 90.2933 24.8747L89.5965 26.0096C89.5279 27.3402 89.4507 28.6835 89.3648 30.0394C89.2542 31.7923 89.1306 33.5234 88.9941 35.2327L87.743 35.7978C87.7375 36.6982 87.731 37.6017 87.7236 38.5083C87.7156 39.5353 87.7054 40.5599 87.693 41.5821L86.0129 42.6202L87.4826 45.2016C87.3502 45.4132 87.2635 45.65 87.2278 45.8967C87.1655 46.397 87.304 46.9015 87.6133 47.3008C87.6133 47.7102 87.6133 48.1192 87.6133 48.5279C88.0223 48.74 88.4418 48.9508 88.8718 49.1604C89.4278 49.4314 89.9727 49.6868 90.5074 49.9256L90.6158 50.0989L90.7335 50.0344C91.6732 50.3986 92.6916 50.7517 93.7916 51.078C95.0381 51.4468 96.227 51.7354 97.3409 51.9585C97.3823 52.3727 97.4255 52.7879 97.4706 53.204C97.766 55.984 98.1147 58.834 98.5169 61.7541C98.8975 64.507 99.308 67.1874 99.7485 69.7952C91.6274 72.2909 82.9085 72.074 74.923 69.1775C75.0917 67.1419 75.3224 65.0131 75.632 62.8051C76.0935 59.475 76.681 56.3571 77.3334 53.4815Z" fill="#0A0A0A"/>
<path d="M90.7798 20.9621C90.1311 20.7597 89.5563 20.3725 89.1266 19.8484C87.4854 17.8201 90.1385 14.9621 88.5279 12.7799C87.7782 11.7658 86.2288 11.0282 85.7645 11.3832C85.6209 11.491 85.6653 11.6395 85.5467 11.8349C85.1288 12.5282 83.2874 12.8112 82.1911 12.0894C82.0133 11.9749 81.8565 11.8308 81.7278 11.6634C80.9179 10.594 81.6425 8.96122 82.2921 8.14438C83.4042 6.74396 85.2057 6.6029 86.4799 6.50425C89.3879 6.27561 92.2255 7.3847 93.6155 8.94555C93.7344 9.07815 93.8449 9.21794 93.9464 9.36411C94.2152 9.76461 94.4419 10.1916 94.6229 10.6382C94.6794 10.783 94.7276 10.9259 94.7702 11.066C94.9933 11.8069 95.0781 12.5821 95.0204 13.3533C94.771 14.6962 94.4305 16.0207 94.001 17.3177C92.9122 20.6367 92.1893 20.9363 91.9345 21.0054C91.5532 21.0992 91.153 21.0842 90.7798 20.9621Z" fill="#E16259"/>
<path d="M93.6267 47.0945C93.0583 47.242 92.4819 47.3568 91.9002 47.4384C91.789 47.3389 91.6667 47.2236 91.5379 47.0936C91.1052 46.6534 90.7314 46.1595 90.4259 45.6241C90.136 45.1177 89.91 44.5776 89.7531 44.0162C89.729 43.9295 89.7067 43.8466 89.6882 43.7673C90.0394 43.6483 90.4407 43.499 90.879 43.3118C91.6022 44.7002 92.5285 45.974 93.6276 47.0918L93.6267 47.0945Z" fill="#E16259"/>
<path d="M85.0148 23.6356C85.857 24.2452 86.8591 24.5981 87.8992 24.6517C88.9392 24.7052 89.9725 24.4569 90.8735 23.9371L90.298 24.8738C89.4857 25.2924 88.5777 25.4928 87.6637 25.4549C86.7498 25.4171 85.8616 25.1424 85.0871 24.6581C85.0624 24.3169 85.0383 23.9761 85.0148 23.6356Z" fill="#E16259"/>
<path d="M80.2682 82.6878C79.8735 84.2415 79.479 85.7947 79.0848 87.3473C78.3029 87.7792 77.4271 88.0153 76.5329 88.0351C75.6387 88.0548 74.7532 87.8577 73.9528 87.4607L74.3818 81.9032C76.2434 82.6642 78.2709 82.9345 80.2682 82.6878Z" fill="#E16259"/>
<path d="M78.5585 93.3269L78.7132 93.8727C74.3126 93.869 69.9111 93.8662 65.5086 93.8644L65.8015 93.3389C67.784 93.3389 69.7659 93.337 71.7472 93.3333L78.5585 93.3269Z" fill="#E16259"/>
<path d="M57.8244 36.6857C57.7688 36.5068 57.7225 36.3409 57.6836 36.1906L59.1756 35.5766L59.1839 35.595C60.0102 37.5695 61.2719 39.3339 62.8759 40.7579L61.1911 41.4309C61.0985 41.3599 60.9975 41.2843 60.8946 41.2014C59.4466 40.0289 58.3786 38.4575 57.8244 36.6838V36.6857Z" fill="#E16259"/>
<path d="M53.7414 37.1974C53.7942 38.2269 53.5622 39.2511 53.0705 40.1585C52.5788 41.0659 51.8464 41.8217 50.9529 42.3437C50.8121 42.4276 50.6934 42.4903 50.6063 42.5336C50.1819 42.2982 49.7572 42.0637 49.3321 41.8302C50.782 40.2175 51.8515 38.3031 52.4625 36.2266L52.5487 36.0865L53.7117 36.7964C53.721 36.9042 53.733 37.0361 53.7414 37.1974Z" fill="#E16259"/>
<path d="M48.5768 93.1426C48.583 93.3854 48.5898 93.6278 48.5972 93.87H34.5771V93.1426H48.5768Z" fill="#E16259"/>
<path d="M41.6275 82.7383C41.7733 83.3868 41.9185 84.0352 42.0631 84.6836C39.8433 86.2428 37.1233 86.9322 34.4243 86.6197C33.781 86.5464 33.1456 86.4165 32.5254 86.2316C32.3796 85.6305 32.2348 85.0287 32.0908 84.4264C35.3661 84.7806 38.6749 84.1962 41.6275 82.742V82.7383Z" fill="#E16259"/>
<path d="M22.9248 59.2853C21.5625 63.4322 20.2012 67.5781 18.8408 71.7232L13.1879 83.9721C9.89433 83.7491 6.74978 82.5219 4.18222 80.4576C5.65259 76.567 7.12605 72.6771 8.60259 68.7877C9.88515 62.5868 11.1668 56.3861 12.4475 50.1857C18.821 51.7479 25.5077 51.4945 31.7433 49.4547L31.7526 49.4869L37.0765 62.3941C38.5944 69.174 40.1127 75.9549 41.6312 82.7367C38.6786 84.1908 35.3698 84.7752 32.0945 84.421C30.6674 78.4985 29.2406 72.5766 27.8141 66.6553L22.9248 59.2853Z" fill="#0A0A0A"/>
<path d="M34.8746 88.5623C35.7816 89.0618 36.8006 89.3257 37.8373 89.3294C38.874 89.3331 39.8949 89.0765 40.8055 88.5835C41.4103 88.8176 42.0145 89.0512 42.6181 89.2841C42.2966 89.4306 41.9675 89.5598 41.6321 89.6714C39.2801 90.4648 36.7174 90.373 34.4289 89.4132C34.5473 89.1149 34.6967 88.8297 34.8746 88.5623Z" fill="#E16259"/>
<path d="M31.0992 4.87246C29.3172 5.44683 26.0784 4.65857 24.5363 6.4499C22.7608 8.50951 25.1748 11.7262 23.0703 13.8024C22.581 14.2808 21.9675 14.6144 21.2984 14.7658C20.8615 14.8706 20.4031 14.8436 19.9816 14.6883C18.5628 14.1149 18.3599 11.8303 18.2477 10.5691C18.117 8.99185 18.3539 7.40583 18.94 5.93453C18.699 5.5759 18.0883 4.56361 18.3914 3.48586C18.5378 2.96497 18.8547 2.57683 19.2532 2.22742C20.8286 0.838975 24.5141 -0.696053 27.4388 0.554097C28.2932 0.922872 28.8742 1.43363 30.1457 1.6005C31.0121 1.7139 31.5404 1.58022 31.9379 1.96927C32.4142 2.43024 32.4606 3.39459 32.177 4.01229C31.9685 4.45205 31.5895 4.71481 31.0992 4.87246Z" fill="#E16259"/>
<path d="M29.18 8.13968C29.4182 8.17471 29.5618 8.52966 29.5025 8.93163C29.4432 9.33359 29.2004 9.6323 28.9622 9.59727C28.7241 9.56223 28.5786 9.20636 28.6388 8.8044C28.6991 8.40243 28.9409 8.10741 29.18 8.13968Z" fill="#0A0A0A"/>
<path d="M28.6055 17.8864L28.5925 17.9195C27.4872 18.8821 26.0805 19.4334 24.6123 19.4795C22.2854 19.5403 20.7285 18.2809 20.368 17.973L20.3569 17.9417L21.4328 17.5581C22.3804 18.0872 23.4495 18.3631 24.5361 18.3591C25.6227 18.355 26.6898 18.0712 27.6334 17.5351C27.9522 17.6476 28.2756 17.7628 28.6055 17.8864Z" fill="#E16259"/>
<path d="M17.0514 92.9581C17.0041 93.1969 16.9587 93.4347 16.9124 93.6735L3.2222 90.6699L3.37974 89.9609C6.1895 90.5755 8.99834 91.1901 11.8062 91.8048L17.0514 92.9581Z" fill="#E16259"/>
<path d="M13.1852 83.9718C12.909 84.5723 12.631 85.1722 12.3511 85.7714C11.9452 85.7475 11.4717 85.7041 10.9463 85.623C9.7471 85.4427 8.57411 85.1196 7.45258 84.6605C6.01755 84.0716 4.68179 83.2672 3.49185 82.2754C3.72167 81.6707 3.95088 81.0656 4.17947 80.4601C6.74703 82.5245 9.89158 83.7516 13.1852 83.9746V83.9718Z" fill="#E16259"/>
<path d="M4.82072 85.6839C5.59401 86.3156 6.51003 86.7509 7.48991 86.9523C8.4698 87.1537 9.48421 87.1151 10.4458 86.84L12.0629 87.9131C11.7849 87.9712 11.4281 88.0339 11.0157 88.0791C8.54743 88.3483 6.06541 87.7099 4.03766 86.2841C4.21896 86.0174 4.42766 85.7702 4.6604 85.5465C4.71045 85.5898 4.76141 85.635 4.82072 85.6839Z" fill="#E16259"/>
<path d="M31.7489 49.4868L37.0728 62.3939C38.5907 69.1738 40.109 75.9547 41.6275 82.7365C41.7733 83.3849 41.9185 84.0334 42.0631 84.6818C39.8433 86.241 37.1233 86.9304 34.4243 86.6179C33.781 86.5445 33.1456 86.4146 32.5254 86.2297C32.3796 85.6286 32.2348 85.0269 32.0908 84.4246C30.6637 78.502 29.2369 72.5801 27.8104 66.6588L22.9248 59.2833C22.5381 58.7025 22.1526 58.121 21.7683 57.539" stroke="black" stroke-width="0.371862" stroke-linecap="round" stroke-linejoin="round"/>
<path d="M22.9248 59.2853C21.5626 63.4322 20.2012 67.5781 18.8408 71.7232L13.1879 83.9721C12.9118 84.5725 12.6338 85.1724 12.3539 85.7717C11.948 85.7477 11.4745 85.7044 10.949 85.6232C9.74894 85.4432 8.575 85.12 7.45258 84.6607C6.01755 84.0718 4.68179 83.2674 3.49185 82.2757C3.72167 81.6709 3.95088 81.0658 4.17947 80.4604C5.65169 76.568 7.12607 72.6771 8.60262 68.7877C9.88518 62.5868 11.1668 56.3861 12.4475 50.1857L12.4559 50.1489" stroke="black" stroke-width="0.371862" stroke-linecap="round" stroke-linejoin="round"/>
<path d="M12.9581 36.4664L14.3417 28.4133L8.82224 32.5482C9.88297 34.1505 11.2976 35.4907 12.9581 36.4664V36.4664Z" stroke="black" stroke-width="0.371862" stroke-linecap="round" stroke-linejoin="round"/>
<path d="M16.6649 19.2546C17.8956 18.8176 19.1259 18.3809 20.356 17.9445L21.4319 17.561C22.3795 18.09 23.4486 18.3659 24.5352 18.3619C25.6218 18.3578 26.6888 18.074 27.6324 17.5379C27.9512 17.6476 28.2746 17.7629 28.6045 17.8864C29.0531 18.053 29.5109 18.233 29.9779 18.4267C31.1419 18.9061 32.2131 19.4113 33.1899 19.9165C36.6496 23.485 40.1117 27.0532 43.5764 30.6211L52.5441 36.0882L53.7071 36.7981C53.72 36.9005 53.733 37.036 53.7404 37.1973C53.7934 38.2267 53.5614 39.2508 53.07 40.1582C52.5785 41.0656 51.8462 41.8215 50.9529 42.3436C50.8121 42.4275 50.6934 42.4902 50.6063 42.5335C50.1819 42.2981 49.7572 42.0636 49.3321 41.8301C45.852 39.9051 42.3726 37.9813 38.8937 36.0587L32.3077 29.513V49.2655C32.1223 49.3291 31.937 49.3918 31.7433 49.4499C25.5077 51.4898 18.821 51.7431 12.4475 50.181C11.8053 50.0261 11.2159 49.8629 10.6812 49.7025C11.0599 47.4936 11.4395 45.2846 11.8201 43.0756C12.2007 40.8667 12.58 38.6635 12.9581 36.4662" stroke="black" stroke-width="0.371862" stroke-linecap="round" stroke-linejoin="round"/>
<path d="M11.8155 43.0814C9.23555 41.8728 5.2776 39.532 2.17778 35.1979C1.3788 34.0821 0.681322 32.8976 0.0936279 31.6586C3.5493 27.8787 8.06884 23.9254 13.8941 20.6875C14.827 20.1694 15.7512 19.6912 16.6668 19.253" stroke="black" stroke-width="0.371862" stroke-linecap="round" stroke-linejoin="round"/>
<path d="M4.1785 80.4577C6.74606 82.522 9.89061 83.7492 13.1842 83.9721H13.2074" stroke="black" stroke-width="0.371862" stroke-linecap="round" stroke-linejoin="round"/>
<path d="M32.0732 84.421H32.0908C35.3661 84.7751 38.675 84.1907 41.6276 82.7366" stroke="black" stroke-width="0.371862" stroke-linecap="round" stroke-linejoin="round"/>
<path d="M52.4588 36.2285C51.8478 38.305 50.7783 40.2194 49.3284 41.8321L49.2543 41.9141" stroke="black" stroke-width="0.371862" stroke-linecap="round" stroke-linejoin="round"/>
<path d="M77.5206 52.6693C77.4588 52.9385 77.397 53.2098 77.3352 53.4833C76.6865 56.3626 76.0953 59.476 75.6282 62.8106C75.3187 65.0187 75.088 67.1437 74.9193 69.1831C74.8785 69.6748 74.8418 70.1603 74.809 70.6397L75.2427 70.7964C79.4165 72.2729 83.8127 73.0311 88.2425 73.0386C89.2415 73.0386 90.2053 73.0017 91.1283 72.9335C93.4432 72.7656 95.7383 72.3911 97.9859 71.8143C98.7133 71.6299 99.3833 71.4335 99.994 71.2427C99.9106 70.7651 99.8285 70.2845 99.7475 69.8008C99.3089 67.1935 98.8984 64.5131 98.5159 61.7596C98.1125 58.8413 97.7638 55.9913 97.4697 53.2095C97.4252 52.7928 97.382 52.3776 97.34 51.964" stroke="black" stroke-width="0.371862" stroke-linecap="round" stroke-linejoin="round"/>
<path d="M85.0148 23.6356C83.9226 23.3376 82.7825 23.2543 81.6583 23.3904C81.3284 23.4309 80.1014 23.3563 78.8374 24.2542L68.0172 31.9386L59.1756 35.5766L57.6836 36.1906C57.7225 36.3408 57.7688 36.5068 57.8244 36.6857C58.3786 38.4593 59.4466 40.0307 60.8946 41.2032C60.9975 41.2861 61.0966 41.3617 61.1911 41.4327L62.8759 40.7597L71.8362 37.1807L78.8142 32.6568C78.1297 39.3193 77.4458 45.9831 76.7625 52.6481C76.9766 52.6629 77.2314 52.6721 77.5206 52.6702C79.0557 52.663 80.571 52.3254 81.9626 51.6808C83.3543 51.0361 84.5893 50.0996 85.5829 48.9355C85.5983 46.6423 85.6057 44.3356 85.6051 42.0154C85.6051 39.9336 85.5977 37.8624 85.5829 35.8015L84.5413 34.9469C84.6648 33.0852 84.7853 31.2241 84.9027 29.3636C84.9842 28.0729 85.0639 26.7822 85.1418 25.4915C85.1214 25.2149 85.1029 24.9383 85.0843 24.6617C85.0615 24.3181 85.0383 23.9761 85.0148 23.6356Z" stroke="black" stroke-width="0.371862" stroke-linecap="round" stroke-linejoin="round"/>
<path d="M95.6858 40.1502C95.8712 39.9769 96.0472 39.7944 96.2261 39.6054C97.0641 38.7109 97.7924 37.7206 98.3955 36.6552C97.7256 35.1497 96.6713 33.845 95.3374 32.8706C95.292 33.929 95.2855 35.0731 95.3374 36.291C95.3967 37.685 95.5273 38.9748 95.6858 40.1502Z" stroke="black" stroke-width="0.371862" stroke-linecap="round" stroke-linejoin="round"/>
<path d="M87.6921 41.606V41.5839C87.7038 40.563 87.714 39.5384 87.7227 38.5101C87.7307 37.6048 87.7372 36.7013 87.7421 35.7996L88.9997 35.2335C89.135 33.5243 89.2585 31.7932 89.3703 30.0403C89.4575 28.6838 89.5347 27.3405 89.602 26.0105L90.2998 24.8746L90.8753 23.9379C92.2722 23.9244 93.6638 24.1107 95.0075 24.4911C97.9087 26.4569 100.396 28.968 102.328 31.8832C103.263 33.3003 104.057 34.8039 104.701 36.3731C103.918 39.0906 102.406 41.5447 100.328 43.472C99.2876 44.4294 98.1201 45.24 96.8581 45.881C96.7228 45.9492 96.5903 46.0147 96.4568 46.0774C95.5475 46.5067 94.5992 46.8494 93.6248 47.1007C93.0565 47.2482 92.48 47.363 91.8984 47.4446C91.7872 47.3451 91.6649 47.2298 91.5361 47.0998C91.1034 46.6596 90.7296 46.1657 90.424 45.6303C90.1341 45.1239 89.9082 44.5838 89.7512 44.0224C89.7271 43.9357 89.7049 43.8528 89.6863 43.7735C90.0376 43.6545 90.4388 43.5052 90.8772 43.318C91.9077 42.8796 92.89 42.3365 93.8083 41.6973C94.4735 41.2331 95.1009 40.7177 95.6849 40.1558" stroke="black" stroke-width="0.371862" stroke-linecap="round" stroke-linejoin="round"/>
<path d="M90.5046 49.9274C89.9699 49.6886 89.4231 49.4332 88.869 49.1622C88.4365 48.9532 88.017 48.7424 87.6105 48.5297C87.6105 48.121 87.6105 47.712 87.6105 47.3026" stroke="black" stroke-width="0.371862" stroke-linecap="round" stroke-linejoin="round"/>
<path d="M96.86 45.8748C96.9044 46.1228 96.9526 46.3735 96.999 46.6252C97.0923 47.1169 97.1914 47.6132 97.2964 48.1141C97.5893 49.5109 97.9099 50.8514 98.2482 52.132C97.9498 52.0797 97.6455 52.0222 97.3354 51.9596C96.2233 51.7364 95.0325 51.4497 93.7861 51.0791C92.6889 50.7527 91.6704 50.3996 90.728 50.0355" stroke="black" stroke-width="0.371862" stroke-linecap="round" stroke-linejoin="round"/>
<path d="M98.2481 52.1328C98.0214 52.4875 97.7953 52.8421 97.5698 53.1967" stroke="black" stroke-width="0.371862" stroke-linecap="round" stroke-linejoin="round"/>
<path d="M76.7625 52.6455C76.9479 52.9221 77.1434 53.1987 77.3334 53.4817L77.3677 53.5315" stroke="black" stroke-width="0.371862" stroke-linecap="round" stroke-linejoin="round"/>
<path d="M59.1839 35.5949C60.0102 37.5693 61.272 39.3337 62.8759 40.7578" stroke="black" stroke-width="0.371862" stroke-linecap="round" stroke-linejoin="round"/>
<path d="M90.8781 43.3126C91.6012 44.7009 92.5275 45.9747 93.6267 47.0925" stroke="black" stroke-width="0.371862" stroke-linecap="round" stroke-linejoin="round"/>
<path d="M79.0719 87.3932C79.0765 87.3775 79.0802 87.3618 79.0849 87.3471C79.4778 85.7933 79.8723 84.2401 80.2683 82.6876C81.1171 79.3459 81.9663 76.0038 82.8158 72.6615" stroke="black" stroke-width="0.371862" stroke-linecap="round" stroke-linejoin="round"/>
<path d="M75.2409 70.7956C74.9542 74.4975 74.6679 78.2 74.3818 81.9031L73.9528 87.4606" stroke="black" stroke-width="0.371862" stroke-linecap="round" stroke-linejoin="round"/>
<path d="M102.432 80.7508C101.921 79.7268 101.411 78.7022 100.901 77.677C99.9283 75.7213 98.9549 73.7665 97.9813 71.8126" stroke="black" stroke-width="0.371862" stroke-linecap="round" stroke-linejoin="round"/>
<path d="M91.1264 72.9328C92.8 75.4761 94.474 78.0198 96.1482 80.5637L98.2963 83.8274" stroke="black" stroke-width="0.371862" stroke-linecap="round" stroke-linejoin="round"/>
<path d="M91.5425 47.0944C90.8475 47.7139 90.0459 48.0163 89.3258 48.0403C88.7698 48.0578 88.2675 47.9057 87.8987 47.5969C87.795 47.5098 87.7017 47.4111 87.6207 47.3028C87.3114 46.9034 87.1729 46.3989 87.2352 45.8986C87.2708 45.6519 87.3576 45.4152 87.49 45.2035C87.8987 44.536 88.7364 44.0437 89.7586 44.017" stroke="black" stroke-width="0.371862" stroke-linecap="round" stroke-linejoin="round"/>
<path d="M87.4826 45.2017L86.0129 42.6203L87.6921 41.5859L92.0883 38.8781C92.6629 39.8166 93.2365 40.7555 93.8092 41.6946" stroke="black" stroke-width="0.371862" stroke-linecap="round" stroke-linejoin="round"/>
<path d="M96.4587 46.0721C96.5773 46.2675 96.6959 46.4639 96.8164 46.6603C94.7857 47.7838 92.7571 48.9092 90.7307 50.0364L90.613 50.101L90.5046 49.9276C90.1111 49.297 89.7157 48.6683 89.3184 48.0413" stroke="black" stroke-width="0.371862" stroke-linecap="round" stroke-linejoin="round"/>
<path d="M21.2864 14.88L21.3262 14.9077C21.4337 14.9814 21.6042 15.0921 21.822 15.2211C22.733 15.7494 24.5243 16.5441 26.5111 16.0214C26.7663 15.9535 27.016 15.8666 27.2581 15.7614C27.4008 15.6996 27.5361 15.6342 27.6612 15.565C28.073 15.3401 28.4568 15.0678 28.8047 14.7537C29.3353 14.2821 29.7796 13.7225 30.1179 13.0998C31.8601 9.95041 31.2012 5.50205 31.0992 4.87237C31.0992 4.87237 31.0992 4.86776 31.0992 4.86499" stroke="black" stroke-width="0.371862" stroke-linecap="round" stroke-linejoin="round"/>
<path d="M21.2984 14.7658C20.8615 14.8706 20.4031 14.8436 19.9816 14.6883C18.5628 14.1149 18.3599 11.8303 18.2477 10.5691C18.117 8.99185 18.3539 7.40583 18.94 5.93453C18.699 5.5759 18.0883 4.56361 18.3914 3.48586C18.5378 2.96497 18.8547 2.57683 19.2532 2.22742C20.8286 0.838975 24.5141 -0.696053 27.4388 0.554097C28.2932 0.922872 28.8742 1.43363 30.1457 1.6005C31.0121 1.7139 31.5404 1.58022 31.9379 1.96927C32.4142 2.43024 32.4606 3.39459 32.177 4.01229C31.9722 4.45851 31.5932 4.7185 31.103 4.87615C29.3209 5.45052 26.0821 4.66226 24.54 6.45359C22.7645 8.5132 25.1785 11.7298 23.074 13.806C22.5832 14.2838 21.9684 14.6161 21.2984 14.7658V14.7658Z" stroke="black" stroke-width="0.371862" stroke-linecap="round" stroke-linejoin="round"/>
<path d="M21.822 15.2213L21.4328 17.5612" stroke="black" stroke-width="0.371862" stroke-linecap="round" stroke-linejoin="round"/>
<path d="M27.2581 15.7604L27.6334 17.537" stroke="black" stroke-width="0.371862" stroke-linecap="round" stroke-linejoin="round"/>
<path d="M20.3717 17.9758C20.7322 18.2837 22.2891 19.5431 24.616 19.4822C26.0846 19.4355 27.4913 18.8831 28.5962 17.9196" stroke="black" stroke-width="0.371862" stroke-linecap="round" stroke-linejoin="round"/>
<path d="M29.5025 8.93532C29.4423 9.33821 29.2004 9.636 28.9622 9.60096C28.7241 9.56593 28.5786 9.21006 28.6388 8.80809C28.6991 8.40613 28.9409 8.10742 29.18 8.14338C29.4191 8.17933 29.5618 8.53336 29.5025 8.93532Z" stroke="black" stroke-width="0.371862" stroke-linecap="round" stroke-linejoin="round"/>
<path d="M30.1234 13.1052L30.1178 13.0997C29.0707 12.021 27.5323 12.1824 27.0004 12.8996C26.5371 13.5256 26.6983 14.7601 27.6565 15.5567" stroke="black" stroke-width="0.371862" stroke-linecap="round" stroke-linejoin="round"/>
<path d="M90.7808 20.9622C90.7252 20.9954 90.6418 21.0415 90.5352 21.0968C89.7614 21.4978 87.7347 22.3663 85.6561 21.5697C85.607 21.5513 85.5569 21.5301 85.5088 21.5107C85.1972 21.3779 84.9001 21.2139 84.6219 21.0212C84.2593 20.7656 83.9278 20.4689 83.634 20.1371C83.1831 19.6389 82.818 19.0701 82.5535 18.4536C81.3905 15.7929 82.0577 12.6703 82.1912 12.0858" stroke="black" stroke-width="0.371862" stroke-linecap="round" stroke-linejoin="round"/>
<path d="M93.6174 8.94105C92.2273 7.38021 89.3888 6.26743 86.4818 6.49976C85.2076 6.5984 83.407 6.73946 82.294 8.13988C81.6453 8.95672 80.9197 10.5895 81.7296 11.6589C81.8584 11.8263 82.0151 11.9704 82.193 12.0849C83.2893 12.8067 85.1306 12.5237 85.5486 11.8304C85.6672 11.635 85.6227 11.4865 85.7664 11.3787C86.2297 11.0237 87.7801 11.7613 88.5298 12.7754C90.1404 14.9539 87.4872 17.8166 89.1284 19.8439C89.5575 20.3697 90.1324 20.7586 90.7817 20.9622C91.1572 21.0843 91.5598 21.0981 91.9428 21.0019C92.1977 20.9299 92.9205 20.6266 94.0094 17.3141C94.4388 16.0171 94.7794 14.6926 95.0288 13.3498C95.0864 12.5785 95.0016 11.8033 94.7786 11.0624C94.7359 10.9223 94.6859 10.7794 94.6312 10.6347C94.4502 10.188 94.2235 9.76103 93.9547 9.36053C93.8512 9.21386 93.7385 9.07376 93.6174 8.94105V8.94105Z" stroke="black" stroke-width="0.371862" stroke-linecap="round" stroke-linejoin="round"/>
<path d="M90.5389 21.1041C90.6501 22.0494 90.7616 22.9937 90.8734 23.9372" stroke="black" stroke-width="0.371862" stroke-linecap="round" stroke-linejoin="round"/>
<path d="M85.5078 21.5079C85.3441 22.2159 85.1798 22.9243 85.0148 23.6329" stroke="black" stroke-width="0.371862" stroke-linecap="round" stroke-linejoin="round"/>
<path d="M82.5665 18.447C83.6674 17.538 85.101 17.8515 85.5254 18.5835C85.8961 19.2196 85.6135 20.3638 84.6275 21.0128" stroke="black" stroke-width="0.371862" stroke-linecap="round" stroke-linejoin="round"/>
<path d="M85.0148 23.6356C85.857 24.2452 86.8591 24.5981 87.8992 24.6517C88.9392 24.7052 89.9725 24.4569 90.8735 23.9371" stroke="black" stroke-width="0.371862" stroke-linecap="round" stroke-linejoin="round"/>
<path d="M50.9529 42.3435C52.7229 43.8832 54.9999 44.003 56.2528 42.9382C56.3208 42.8808 56.3852 42.8192 56.4455 42.7538C56.7263 42.4555 56.9436 42.1039 57.0845 41.7201C57.2254 41.3362 57.287 40.928 57.2656 40.5199C57.2026 39.4385 56.5122 38.4179 55.4345 37.7855C54.914 37.4841 54.3407 37.2838 53.7451 37.1954V37.1954" stroke="black" stroke-width="0.371862" stroke-linecap="round" stroke-linejoin="round"/>
<path d="M57.8254 36.6859C56.922 36.7651 56.0751 37.1565 55.4317 37.7922" stroke="black" stroke-width="0.371862" stroke-linecap="round" stroke-linejoin="round"/>
<path d="M60.8946 41.1996C60.3653 41.8368 59.6716 42.3184 58.8879 42.5929C58.1042 42.8674 57.2602 42.9244 56.4464 42.7577" stroke="black" stroke-width="0.371862" stroke-linecap="round" stroke-linejoin="round"/>
<path d="M74.9174 69.1813C82.903 72.0777 91.6218 72.2946 99.7429 69.799" stroke="black" stroke-width="0.371862" stroke-linecap="round" stroke-linejoin="round"/>
<path d="M93.6174 8.94088L94.1994 8.6394C94.516 8.90097 94.7773 9.22241 94.9682 9.58512C95.1591 9.94784 95.2757 10.3446 95.3114 10.7525C95.1317 10.8548 94.9519 10.959 94.7712 11.0613" stroke="black" stroke-width="0.371862" stroke-linecap="round" stroke-linejoin="round"/>
<path d="M94.1994 8.63953C96.3734 6.57899 97.4336 6.47481 97.9989 6.72558C99.1897 7.25385 98.4085 9.5209 100.053 12.2231C101.373 14.3897 103.078 14.9142 102.833 15.5338C102.517 16.3248 99.4325 16.6051 98.0017 15.13C96.6116 13.6945 97.2177 11.0338 96.0324 10.6862C95.7933 10.6273 95.5411 10.6507 95.317 10.7526" stroke="black" stroke-width="0.371862" stroke-linecap="round" stroke-linejoin="round"/>
<path d="M34.8746 88.5623C34.6951 88.8295 34.5441 89.1147 34.4243 89.4132C34.1814 90.01 34.0694 90.6514 34.0958 91.2947C34.1222 91.938 34.2863 92.5683 34.5772 93.1434H48.5769C48.5954 93.1268 49.0513 92.734 48.9475 92.1827C48.8994 91.9481 48.7678 91.7385 48.5769 91.5927L42.6135 89.2878C42.0093 89.0555 41.4051 88.8219 40.8009 88.5872C39.8903 89.0802 38.8694 89.3368 37.8327 89.3331C36.796 89.3293 35.777 89.0655 34.87 88.5659L34.8746 88.5623Z" stroke="black" stroke-width="0.371862" stroke-linecap="round" stroke-linejoin="round"/>
<path d="M34.5771 93.1426V93.87H48.5972C48.5898 93.6272 48.583 93.3847 48.5768 93.1426" stroke="black" stroke-width="0.371862" stroke-linecap="round" stroke-linejoin="round"/>
<path d="M40.8009 88.5835C40.6699 87.6001 40.5389 86.6191 40.408 85.6406" stroke="black" stroke-width="0.371862" stroke-linecap="round" stroke-linejoin="round"/>
<path d="M34.8746 88.5622C34.7239 87.9144 34.5738 87.2657 34.4243 86.616" stroke="black" stroke-width="0.371862" stroke-linecap="round" stroke-linejoin="round"/>
<path d="M34.4243 89.4133C36.7128 90.3731 39.2755 90.4649 41.6275 89.6714C41.9629 89.5599 42.292 89.4306 42.6135 89.2842C42.6182 89.2833 42.6226 89.2814 42.6265 89.2787" stroke="black" stroke-width="0.371862" stroke-linecap="round" stroke-linejoin="round"/>
<path d="M41.6275 89.6716L46.4325 91.4804L45.0721 92.6319H43.2057V93.1436" stroke="black" stroke-width="0.371862" stroke-linecap="round" stroke-linejoin="round"/>
<path d="M4.82074 85.6839C4.76143 85.6351 4.70861 85.5917 4.66042 85.5493C4.42768 85.773 4.21898 86.0202 4.03767 86.2869C3.67221 86.8181 3.42454 87.4206 3.3111 88.0543C3.19765 88.6881 3.22105 89.3386 3.37971 89.9626C6.18948 90.5773 8.99832 91.1919 11.8062 91.8065L17.0514 92.9562C17.0736 92.9451 17.6074 92.6584 17.6213 92.0979C17.6256 91.858 17.5423 91.6248 17.3868 91.4414L12.0629 87.9122L10.4458 86.8391C9.48423 87.1142 8.46982 87.1528 7.48993 86.9514C6.51004 86.75 5.59403 86.3147 4.82074 85.683V85.6839Z" stroke="black" stroke-width="0.371862" stroke-linecap="round" stroke-linejoin="round"/>
<path d="M3.37974 89.9602L3.2222 90.6692L16.9124 93.6728C16.9587 93.434 17.0051 93.1962 17.0514 92.9574" stroke="black" stroke-width="0.371862" stroke-linecap="round" stroke-linejoin="round"/>
<path d="M10.4458 86.8401C10.6126 86.4344 10.7803 86.0291 10.949 85.624" stroke="black" stroke-width="0.371862" stroke-linecap="round" stroke-linejoin="round"/>
<path d="M4.82074 85.6839L5.34618 83.5957" stroke="black" stroke-width="0.371862" stroke-linecap="round" stroke-linejoin="round"/>
<path d="M4.03766 86.2841C6.06541 87.7099 8.54744 88.3483 11.0157 88.0791C11.4281 88.0339 11.7821 87.9712 12.0629 87.9131H12.0768" stroke="black" stroke-width="0.371862" stroke-linecap="round" stroke-linejoin="round"/>
<path d="M11.0157 88.0791L15.3165 90.8735L13.7393 91.707L11.9174 91.3078L11.8062 91.8075" stroke="black" stroke-width="0.371862" stroke-linecap="round" stroke-linejoin="round"/>
<path d="M65.8015 93.3371C67.784 93.3371 69.7659 93.3352 71.7472 93.3315L78.5585 93.3251C79.2828 91.7481 79.5399 89.9984 79.2999 88.2812C79.2546 87.9613 79.1927 87.6441 79.1145 87.3306L79.0849 87.3472C78.303 87.7792 77.4271 88.0153 76.5329 88.035C75.6387 88.0548 74.7532 87.8576 73.9528 87.4606C73.7535 87.6819 73.5534 87.905 73.3551 88.1281L71.8334 89.8236L65.947 91.377C65.7229 91.4502 65.5286 91.5933 65.3928 91.7852C65.2571 91.977 65.1872 92.2073 65.1936 92.4419C65.2064 92.6312 65.2694 92.8138 65.3762 92.971C65.483 93.1283 65.6297 93.2546 65.8015 93.3371V93.3371Z" stroke="black" stroke-width="0.371862" stroke-linecap="round" stroke-linejoin="round"/>
<path d="M78.5585 93.3269L78.7132 93.8727C74.3126 93.869 69.9111 93.8662 65.5086 93.8644L65.8015 93.3389" stroke="black" stroke-width="0.371862" stroke-linecap="round" stroke-linejoin="round"/>
<path d="M73.355 88.1281C74.2523 88.6496 75.2675 88.9371 76.3063 88.9638C77.3451 88.9906 78.3739 88.7557 79.2971 88.2812" stroke="black" stroke-width="0.371862" stroke-linecap="round" stroke-linejoin="round"/>
<path d="M74.3818 81.9032C76.2434 82.6642 78.2709 82.9345 80.2683 82.6878" stroke="black" stroke-width="0.371862" stroke-linecap="round" stroke-linejoin="round"/>
<path d="M74.5977 88.6849L72.571 90.9768L71.0957 91.4083V92.5598L71.7472 93.3241" stroke="black" stroke-width="0.371862" stroke-linecap="round" stroke-linejoin="round"/>
<path d="M95.064 93.3114L99.9107 89.8873L105.465 85.9626C105.258 84.1848 104.423 82.5377 103.111 81.3142C102.895 81.1143 102.67 80.9263 102.434 80.7509C102.05 81.5612 101.473 82.2655 100.751 82.8019C100.03 83.3383 99.188 83.6904 98.2982 83.8274C98.2648 84.1233 98.2315 84.4202 98.199 84.7152C98.115 85.4693 98.0301 86.2229 97.9442 86.9758L94.0437 91.6316C93.9038 91.8203 93.8288 92.0489 93.8298 92.2834C93.8308 92.5179 93.9078 92.7458 94.0493 92.9334C94.17 93.0796 94.3274 93.1915 94.5056 93.2579C94.6838 93.3243 94.8764 93.3427 95.064 93.3114V93.3114Z" stroke="black" stroke-width="0.371862" stroke-linecap="round" stroke-linejoin="round"/>
<path d="M105.463 85.9623L105.906 86.3201C102.314 88.8499 98.7211 91.38 95.1279 93.9104C95.1063 93.7112 95.0844 93.5121 95.0621 93.313" stroke="black" stroke-width="0.371862" stroke-linecap="round" stroke-linejoin="round"/>
<path d="M98.1972 84.7152C99.2461 84.6352 100.255 84.2779 101.118 83.6801C101.982 83.0823 102.669 82.2658 103.109 81.3151" stroke="black" stroke-width="0.371862" stroke-linecap="round" stroke-linejoin="round"/>
<path d="M99.5344 84.4559L99.2138 87.4909L98.2602 88.6913L98.9302 89.6307L99.906 89.8806" stroke="black" stroke-width="0.371862" stroke-linecap="round" stroke-linejoin="round"/>
<path d="M85.0871 24.6582C85.8615 25.1425 86.7497 25.4172 87.6637 25.4551C88.5777 25.4929 89.4857 25.2926 90.2979 24.8739L90.3211 24.862" stroke="black" stroke-width="0.371862" stroke-linecap="round" stroke-linejoin="round"/>
<path d="M96.1483 80.5636C98.0449 80.2411 99.7455 79.2081 100.9 77.677" stroke="black" stroke-width="0.371862" stroke-linecap="round" stroke-linejoin="round"/>
<path d="M27.0912 7.45929C27.6154 7.13118 28.2221 6.95709 28.8413 6.95709C29.4606 6.95709 30.0673 7.13118 30.5914 7.45929" stroke="black" stroke-width="0.371862" stroke-linecap="round" stroke-linejoin="round"/>
<path d="M84.2946 14.7344C84.3547 14.332 84.2101 13.9772 83.9717 13.942C83.7333 13.9067 83.4913 14.2044 83.4312 14.6068C83.3711 15.0092 83.5157 15.364 83.7541 15.3993C83.9925 15.4345 84.2346 15.1368 84.2946 14.7344Z" fill="black"/>
<path d="M82.8713 13.579C83.3281 13.4188 83.8129 13.3525 84.2962 13.3842C84.7795 13.4159 85.2513 13.5449 85.683 13.7634" stroke="black" stroke-width="0.371862" stroke-linecap="round" stroke-linejoin="round"/>
</g>
<defs>
<clipPath id="clip0_910_15259">
<rect width="106" height="94" fill="white"/>
</clipPath>
</defs>
</svg>
