<svg width="144" height="102" viewBox="0 0 144 102" fill="none" xmlns="http://www.w3.org/2000/svg">
<g clip-path="url(#clip0_910_15352)">
<path d="M140.092 13.7323C141.934 16.3333 144.123 16.8546 143.864 17.6508C143.531 18.6685 139.676 19.2747 137.752 17.5467C135.88 15.8606 136.422 12.4759 134.901 12.14C134.595 12.0863 134.279 12.1361 134.005 12.2814C133.926 11.7733 133.746 11.2859 133.476 10.8472C133.205 10.4085 132.85 10.0273 132.43 9.72561C134.99 6.96176 136.315 6.74577 137.045 7.01152C138.589 7.57583 137.796 10.4822 140.092 13.7323Z" fill="#25272C"/>
<path d="M133.354 12.7128C133.698 13.6227 133.87 14.5875 133.861 15.5592C133.662 17.2613 133.347 18.9482 132.919 20.6085C131.828 24.856 130.943 25.2959 130.627 25.4068C130.154 25.5594 129.647 25.5755 129.165 25.4531C128.331 25.2519 127.575 24.8122 126.991 24.1888C124.755 21.7846 127.852 17.977 125.645 15.3793C124.618 14.1693 122.606 13.3743 122.05 13.8561C121.879 14.0042 121.947 14.1874 121.815 14.443C121.349 15.3477 119.054 15.8543 117.614 15.0401C117.381 14.9108 117.173 14.7424 116.998 14.5425C115.889 13.2703 116.664 11.1623 117.411 10.0846C118.693 8.23903 120.947 7.91333 122.544 7.68151C126.183 7.15452 129.845 8.30914 131.727 10.1513C131.89 10.3066 132.043 10.4725 132.183 10.6478C132.555 11.1277 132.876 11.6442 133.14 12.1892C133.219 12.3671 133.29 12.5416 133.354 12.7128Z" fill="#25272C"/>
<path d="M127.009 28.8742L126.711 30.7582C125.66 31.3589 124.423 31.5568 123.234 31.3146C122.314 31.1116 121.473 30.6485 120.813 29.9813C120.933 29.4306 121.053 28.8821 121.173 28.3314C121.268 28.5066 122.015 29.8535 123.626 30.1487C124.253 30.2565 124.898 30.195 125.493 29.9708C126.089 29.7466 126.612 29.3678 127.009 28.8742Z" fill="#25272C"/>
<path d="M126.711 30.7583C126.227 33.832 125.743 36.9042 125.259 39.9749L122.851 40.8795C122.657 42.0195 122.463 43.1594 122.269 44.2993C121.357 44.1327 120.476 43.9536 119.627 43.7621C119.839 42.6795 120.05 41.598 120.262 40.5177L118.95 38.4934C119.57 35.6572 120.191 32.8202 120.813 29.9825C121.474 30.6498 122.316 31.1126 123.238 31.3146C124.425 31.556 125.661 31.3581 126.711 30.7583Z" fill="#383A42"/>
<path d="M118.798 43.5699C118 44.1165 117.366 44.8677 116.964 45.7434C116.513 46.7429 116.38 47.855 116.583 48.9313L116.544 49.0591C115.993 48.8906 115.465 48.7198 114.955 48.5468C114.943 48.4824 114.928 48.4021 114.915 48.3093C114.777 47.3681 114.897 46.4073 115.261 45.5273C115.625 44.6473 116.221 43.8803 116.986 43.3064C117.06 43.2487 117.127 43.2023 117.186 43.1616C117.71 43.3041 118.248 43.4402 118.798 43.5699Z" fill="#25272C"/>
<path d="M111.078 91.4205L111.213 92.1827L102.963 101.881C102.881 101.671 102.8 101.46 102.719 101.248L107.066 96.1385C108.404 94.5643 109.742 92.9916 111.078 91.4205Z" fill="#25272C"/>
<path d="M102.901 74.3218C100.544 74.3331 98.1863 74.3429 95.8289 74.3511L91.8911 74.3681L89.5219 74.3783L93.2372 59.3004L109.175 57.0047C109.303 56.7627 109.43 56.5218 109.557 56.2821C112.422 56.2492 115.221 55.4231 117.637 53.8971C117.924 52.4722 118.213 51.0477 118.504 49.6235C119.464 49.878 120.476 50.1177 121.536 50.3349C121.36 51.6738 121.184 53.0128 121.009 54.3517C121.997 55.5532 123.225 56.5391 124.616 57.2475C126.007 57.9559 127.531 58.3714 129.092 58.4681C128.508 61.6956 127.923 64.9235 127.338 68.1517H105.01L104.782 69.5088L103.96 74.3184L102.901 74.3218Z" fill="#383A42"/>
<path d="M104.181 80.7726L107.22 85.4318C107.029 86.4249 106.595 87.3565 105.957 88.145C105.319 88.9336 104.496 89.5551 103.559 89.9552L100.918 86.5389C101.089 85.4834 101.26 84.4279 101.432 83.3725C101.645 83.2232 101.863 83.0626 102.082 82.8873C102.864 82.2673 103.568 81.5574 104.181 80.7726Z" fill="#25272C"/>
<path d="M100.482 89.228C100.199 90.9846 99.9144 92.7404 99.6284 94.4955C98.7393 94.9926 97.7408 95.266 96.7204 95.2916C95.7 95.3172 94.6888 95.0944 93.7754 94.6426C93.9731 92.6869 94.1709 90.7309 94.3686 88.7745C96.329 89.4636 98.4398 89.6197 100.482 89.2268V89.228Z" fill="#25272C"/>
<path d="M98.9978 101.269L99.1735 101.885L84.1994 101.876C84.3134 101.678 84.4195 101.479 84.5325 101.283L91.2729 101.276L98.9978 101.269Z" fill="#25272C"/>
<path d="M85.942 41.7852L84.199 41.8757C84.1488 41.7864 84.093 41.6846 84.0336 41.5659C83.5382 40.5879 83.2804 39.5085 83.2808 38.4141C83.2822 37.5909 83.4313 36.7745 83.7211 36.0031C83.7621 35.89 83.8032 35.7939 83.8352 35.7034L85.4572 35.5688C85.1767 37.6525 85.34 39.7713 85.9363 41.7886L85.942 41.7852Z" fill="#25272C"/>
<path d="M75.1873 90.9907L75.4519 91.8671L73.215 92.479V91.529L75.1873 90.9907Z" fill="#25272C"/>
<path d="M70.8156 92.1665V93.1017L58.3476 96.4774L58.1047 95.593L68.6334 92.7557L70.8156 92.1665Z" fill="#25272C"/>
<path d="M63.7273 100.965C63.7364 101.272 63.7448 101.577 63.7524 101.881H46.0257V100.965H63.7273Z" fill="#25272C"/>
<path d="M62.9315 82.7672L63.4916 84.4929C63.3421 84.7489 63.1751 84.9945 62.9919 85.2279C62.1845 86.2689 61.0856 87.051 59.8324 87.4766C58.5793 87.9022 57.2275 87.9524 55.9457 87.6209C55.7975 87.5847 55.6811 87.5507 55.6035 87.5258L55.5168 87.536C55.4279 86.8326 55.3393 86.1289 55.2511 85.4247H55.283C56.6801 85.6398 58.1092 85.5102 59.4438 85.0475C60.7785 84.5848 61.9775 83.8031 62.9349 82.7717L62.9315 82.7672Z" fill="#25272C"/>
<path d="M38.6573 69.5044C38.5843 69.1018 38.5102 68.697 38.4372 68.2932L16.3952 68.1507C15.5944 63.9077 14.7929 59.6651 13.9906 55.4228C15.5739 55.4782 17.2462 55.4726 18.9949 55.3877C23.8609 55.1498 28.6804 54.3327 33.3496 52.9541V52.9756C33.4211 53.2183 33.4937 53.4619 33.5675 53.7061C40.5836 54.8641 47.5997 56.0233 54.6159 57.1836C57.3855 65.7118 60.1567 74.2397 62.9294 82.7672C61.972 83.7987 60.7729 84.5803 59.4383 85.0431C58.1037 85.5058 56.6746 85.6353 55.2775 85.4203H55.2455C55.3345 86.1237 55.4231 86.8274 55.5113 87.5316L55.5798 88.0767C51.4041 89.9146 46.7516 90.4059 42.2791 89.4812C41.073 82.8242 39.8657 76.1652 38.6573 69.5044Z" fill="#383A42"/>
<path d="M60.1039 38.9029C60.2159 39.6771 60.1662 40.4658 59.9579 41.2201C59.6415 42.326 59.0016 43.3142 58.119 44.0597C58.038 44.1287 57.9662 44.1852 57.908 44.2305L56.5061 43.8912L56.5266 43.8041C57.8089 42.0948 58.4963 40.0187 58.4852 37.8885L60.0309 38.5004C60.056 38.6112 60.081 38.748 60.1039 38.9029Z" fill="#25272C"/>
<path d="M55.5811 88.0811C55.6906 88.9579 55.8005 89.8335 55.9108 90.7081C55.1719 91.3177 54.361 91.8361 53.4959 92.2517C52.6129 92.6792 51.6771 92.9899 50.7125 93.1756C49.1237 93.4818 47.4876 93.4518 45.9113 93.0874C44.7955 92.834 43.7206 92.4283 42.7173 91.8819C42.5713 91.0835 42.426 90.2847 42.2815 89.4856C46.7541 90.4103 51.4066 89.919 55.5822 88.0811H55.5811Z" fill="#25272C"/>
<path d="M29.7129 6.13719C27.46 6.85869 23.3649 5.86805 21.4143 8.123C19.1705 10.7184 22.223 14.7714 19.5617 17.3882C18.9415 17.9922 18.1637 18.4128 17.3157 18.6028C16.7636 18.7358 16.1841 18.7023 15.6514 18.5067C13.857 17.7829 13.5981 14.9094 13.4578 13.3171C13.2928 11.3291 13.593 9.33025 14.335 7.47614C14.0304 7.0238 13.257 5.74818 13.6403 4.39113C13.8262 3.73409 14.2266 3.24443 14.7285 2.80791C16.7202 1.05959 21.3823 -0.875331 25.0805 0.701103C26.1608 1.16137 26.8954 1.80822 28.5026 2.01857C29.5977 2.16219 30.2662 1.99256 30.7692 2.4777C31.3704 3.0567 31.4297 4.27352 31.0715 5.05269C30.8137 5.60908 30.3346 5.93703 29.7129 6.13719Z" fill="#25272C"/>
<path d="M25.3112 22.3459C25.7744 22.4025 26.2481 22.4673 26.7326 22.5405C26.574 22.7666 24.9839 24.9074 22.1207 24.9503C19.2769 24.9922 17.6274 22.9227 17.4586 22.701C17.9149 22.6174 18.3347 22.5529 18.7316 22.5009C19.7046 23.1664 20.865 23.5099 22.0468 23.482C23.2286 23.4542 24.3712 23.0565 25.3112 22.3459Z" fill="#25272C"/>
<path d="M25.2732 47.7529C25.3013 48.7172 25.2016 49.681 24.9767 50.6196C24.9447 50.7587 24.9094 50.8888 24.8763 51.0121C24.209 51.1116 23.48 51.2054 22.6907 51.2789L22.6838 51.2021C23.3494 48.8228 23.1887 46.2908 22.2275 44.0131V43.926C23.026 43.9158 23.7572 43.8774 24.4211 43.8231C24.4656 43.9362 24.5135 44.0493 24.5592 44.1692C24.9963 45.3161 25.2377 46.5273 25.2732 47.7529Z" fill="#25272C"/>
<path d="M33.3497 52.9813C33.4212 53.2241 33.4938 53.4676 33.5676 53.7119C40.5837 54.8699 47.5998 56.029 54.616 57.1893C57.3856 65.7176 60.1568 74.2455 62.9295 82.773L63.4896 84.4987C63.3401 84.7547 63.1732 85.0003 62.9899 85.2337C62.1825 86.2748 61.0836 87.0569 59.8305 87.4825C58.5773 87.908 57.2255 87.9582 55.9438 87.6267C55.7955 87.5905 55.6791 87.5566 55.6016 87.5317" stroke="#383A42" stroke-width="0.554419" stroke-linecap="round" stroke-linejoin="round"/>
<path d="M28.901 55.2513L51.851 58.3692C52.9849 67.3867 54.118 76.405 55.2503 85.4241C55.3393 86.1275 55.4279 86.8313 55.5161 87.5354L55.5846 88.0805C55.6941 88.9573 55.804 89.833 55.9142 90.7075C55.1753 91.3172 54.3644 91.8355 53.4993 92.2512C52.6164 92.6787 51.6806 92.9893 50.716 93.1751C49.1272 93.4813 47.491 93.4512 45.9148 93.0869C44.799 92.8335 43.724 92.4278 42.7208 91.8814C42.5747 91.083 42.4295 90.2842 42.285 89.4851C41.0781 82.825 39.8705 76.1645 38.6621 69.5037C38.5891 69.1011 38.515 68.6963 38.442 68.2925L16.4 68.1501C15.5992 63.907 14.7977 59.6644 13.9954 55.4221" stroke="#383A42" stroke-width="0.554419" stroke-linecap="round" stroke-linejoin="round"/>
<path d="M42.2804 89.4852C46.7529 90.4099 51.4054 89.9186 55.5811 88.0807L55.5993 88.0728" stroke="#383A42" stroke-width="0.554419" stroke-linecap="round" stroke-linejoin="round"/>
<path d="M62.931 82.7672C61.9736 83.7986 60.7746 84.5802 59.4399 85.043C58.1053 85.5057 56.6762 85.6353 55.2791 85.4202" stroke="#383A42" stroke-width="0.554419" stroke-linecap="round" stroke-linejoin="round"/>
<path d="M34.1861 50.8401C34.1861 51.4599 34.1891 52.0792 34.1952 52.6982C33.9169 52.7841 33.634 52.8701 33.3465 52.9537C28.6784 54.3321 23.8601 55.1492 18.9952 55.3874C17.2465 55.4722 15.5731 55.4779 13.9909 55.4224C13.705 55.4134 13.4213 55.4017 13.1399 55.3874C13.0966 53.9255 13.0529 52.4629 13.0088 50.9996" stroke="#383A42" stroke-width="0.554419" stroke-linecap="round" stroke-linejoin="round"/>
<path d="M13.3216 42.7118C14.1075 42.938 14.946 43.1494 15.8369 43.3281C17.939 43.7503 20.0802 43.9508 22.2249 43.9264C23.0234 43.9162 23.7545 43.8777 24.4184 43.8234C24.4629 43.9365 24.5108 44.0496 24.5565 44.1695C25.3442 46.228 25.4908 48.4734 24.9774 50.6155C24.9455 50.7546 24.9101 50.8846 24.877 51.0079C24.2097 51.1074 23.4808 51.2012 22.6914 51.2747C19.5196 51.5727 16.3231 51.4873 13.1722 51.0203L13.009 50.9954C9.74531 50.4972 6.55806 49.5925 3.52289 48.3028C2.20879 47.7487 1.06808 47.1821 0.114441 46.6664C0.780122 39.4319 3.44559 32.5195 7.81767 26.6896C10.7078 24.6938 13.9951 23.3339 17.459 22.701C17.9152 22.6174 18.335 22.5529 18.732 22.5009C19.705 23.1664 20.8654 23.5099 22.0472 23.482C23.229 23.4542 24.3716 23.0565 25.3116 22.3459C25.7747 22.4025 26.2485 22.4673 26.7329 22.5405C27.7391 22.6909 28.7931 22.8797 29.8859 23.1183C31.8958 23.5529 33.8768 24.1099 35.8176 24.7864L44.0854 32.1857L58.4858 37.8841L60.0315 38.4959C60.0566 38.609 60.0816 38.7481 60.1045 38.903C60.2165 39.6772 60.1668 40.4659 59.9584 41.2202C59.6421 42.3261 59.0022 43.3142 58.1196 44.0598C58.0386 44.1288 57.9668 44.1853 57.9086 44.2306L56.5067 43.8913L39.6549 39.8009L33.9046 33.7643C33.9388 36.0464 33.9742 38.3289 34.0107 40.6118" stroke="#383A42" stroke-width="0.554419" stroke-linecap="round" stroke-linejoin="round"/>
<path d="M13.321 42.7104C13.321 39.7453 13.3184 36.7809 13.3131 33.8173C11.6933 36.1414 10.5728 38.7708 10.021 41.5422C11.0976 41.9937 12.1994 42.3837 13.321 42.7104V42.7104Z" stroke="#383A42" stroke-width="0.554419" stroke-linecap="round" stroke-linejoin="round"/>
<path d="M13.3213 42.7106V42.7116" stroke="#383A42" stroke-width="0.554419" stroke-linecap="round" stroke-linejoin="round"/>
<path d="M22.2257 44.0135C23.1869 46.2912 23.3476 48.8232 22.682 51.2024" stroke="#383A42" stroke-width="0.554419" stroke-linecap="round" stroke-linejoin="round"/>
<path d="M16.3957 68.1506H9.80122L3.52161 48.3118" stroke="#383A42" stroke-width="0.554419" stroke-linecap="round" stroke-linejoin="round"/>
<path d="M105.012 48.3431H39.6546V50.8786H105.012V48.3431Z" stroke="#383A42" stroke-width="0.554419" stroke-linecap="round" stroke-linejoin="round"/>
<path d="M58.4856 37.8839C58.4967 40.014 57.8093 42.0901 56.527 43.7994" stroke="#383A42" stroke-width="0.554419" stroke-linecap="round" stroke-linejoin="round"/>
<path d="M17.3059 18.7449C17.3218 18.7562 17.3378 18.7664 17.3561 18.7811C17.8835 19.1416 18.4451 19.4503 19.0329 19.7027C20.274 20.2365 22.0227 20.6798 23.9117 20.1833C24.2176 20.1025 24.5172 20 24.8083 19.8769C25.008 19.7921 25.195 19.7016 25.3684 19.6077C25.8887 19.3263 26.3735 18.9847 26.8126 18.5899C27.6393 17.8525 28.3021 16.9524 28.7586 15.9471C30.602 12.0331 29.8389 6.90013 29.7134 6.14131C29.7134 6.14131 29.7134 6.13227 29.7134 6.13" stroke="#383A42" stroke-width="0.554419" stroke-linecap="round" stroke-linejoin="round"/>
<path d="M17.3157 18.6028C16.7636 18.7358 16.1841 18.7023 15.6514 18.5067C13.857 17.7829 13.5981 14.9094 13.4578 13.3171C13.2928 11.3291 13.593 9.33025 14.335 7.47614C14.0304 7.0238 13.257 5.74817 13.6403 4.39113C13.8262 3.73409 14.2266 3.24443 14.7285 2.80791C16.7202 1.05959 21.3823 -0.875331 25.0805 0.701103C26.1608 1.16137 26.8954 1.80822 28.5026 2.01857C29.5977 2.16219 30.2662 1.99256 30.7692 2.4777C31.3704 3.0567 31.4297 4.27352 31.0715 5.05269C30.8126 5.61813 30.3335 5.94269 29.7118 6.14285C27.4589 6.86435 23.3637 5.8737 21.4131 8.12866C19.1693 10.724 22.2219 14.777 19.5606 17.3939C18.94 17.9956 18.1626 18.4142 17.3157 18.6028V18.6028Z" stroke="#383A42" stroke-width="0.554419" stroke-linecap="round" stroke-linejoin="round"/>
<path d="M28.7587 15.9429C27.729 15.6084 26.6319 15.5308 25.5647 15.7167C24.781 15.8581 23.7099 16.056 23.443 16.7345C23.1453 17.4877 23.8993 18.7 25.3571 19.5967" stroke="#383A42" stroke-width="0.554419" stroke-linecap="round" stroke-linejoin="round"/>
<path d="M19.0155 19.7537L18.7315 22.5006" stroke="#383A42" stroke-width="0.554419" stroke-linecap="round" stroke-linejoin="round"/>
<path d="M24.8205 19.9086L25.311 22.3457" stroke="#383A42" stroke-width="0.554419" stroke-linecap="round" stroke-linejoin="round"/>
<path d="M17.4586 22.701C17.6274 22.9272 19.2769 24.9922 22.1207 24.9504C24.9839 24.9074 26.5694 22.7621 26.7326 22.5405" stroke="#383A42" stroke-width="0.554419" stroke-linecap="round" stroke-linejoin="round"/>
<path d="M9.80084 68.1509V69.5045H10.8982H13.4112H14.5211H35.233H36.3771H38.6574H38.7761" stroke="#383A42" stroke-width="0.554419" stroke-linecap="round" stroke-linejoin="round"/>
<path d="M46.4007 95.1944C46.1729 95.5304 45.9817 95.8894 45.8303 96.2653C45.57 96.9016 45.4286 97.5794 45.4128 98.2658C45.3915 99.2015 45.601 100.128 46.0231 100.965H63.7269C63.752 100.946 64.3269 100.45 64.1969 99.7552C64.1359 99.4591 63.969 99.1948 63.7269 99.0111C61.2174 98.0431 58.7044 97.0739 56.188 96.1036L53.8963 95.2204C52.745 95.8398 51.455 96.1621 50.1451 96.1575C48.8352 96.153 47.5475 95.8218 46.4007 95.1944V95.1944Z" stroke="#383A42" stroke-width="0.554419" stroke-linecap="round" stroke-linejoin="round"/>
<path d="M46.0257 100.965V101.881H63.7524C63.7448 101.58 63.7364 101.274 63.7273 100.965" stroke="#383A42" stroke-width="0.554419" stroke-linecap="round" stroke-linejoin="round"/>
<path d="M53.896 95.2202C53.7629 94.231 53.6294 93.2415 53.4956 92.2516" stroke="#383A42" stroke-width="0.554419" stroke-linecap="round" stroke-linejoin="round"/>
<path d="M46.4006 95.1938C46.2371 94.4911 46.074 93.7888 45.9112 93.0869" stroke="#383A42" stroke-width="0.554419" stroke-linecap="round" stroke-linejoin="round"/>
<path d="M45.8325 96.265C47.4769 96.9458 49.2453 97.2829 51.0272 97.255C52.809 97.2272 54.5659 96.8351 56.1879 96.1033L56.2038 96.0965" stroke="#383A42" stroke-width="0.554419" stroke-linecap="round" stroke-linejoin="round"/>
<path d="M54.9403 96.5907L61.0157 98.8694L59.2955 100.321H56.9377V100.965" stroke="#383A42" stroke-width="0.554419" stroke-linecap="round" stroke-linejoin="round"/>
<path d="M73.215 91.529L75.1873 90.9907C75.2055 90.9636 75.6287 90.336 75.3196 89.7004C75.1824 89.4306 74.9515 89.219 74.6694 89.1045L73.215 88.9122" stroke="#383A42" stroke-width="0.554419" stroke-linecap="round" stroke-linejoin="round"/>
<path d="M68.6333 92.7546L70.8155 92.1665" stroke="#383A42" stroke-width="0.554419" stroke-linecap="round" stroke-linejoin="round"/>
<path d="M70.8153 88.7312L66.613 88.2698L64.1798 88.0018C63.2327 88.8989 62.0731 89.5453 60.8078 89.8812C59.5425 90.2172 58.2123 90.232 56.9397 89.9243C56.81 90.3084 56.7209 90.7048 56.6739 91.1072C56.5921 91.7878 56.6354 92.4775 56.8017 93.1428C57.0283 94.0523 57.4751 94.8934 58.1032 95.5934L68.632 92.756" stroke="#383A42" stroke-width="0.554419" stroke-linecap="round" stroke-linejoin="round"/>
<path d="M73.215 92.479L75.4519 91.8671L75.1873 90.9907" stroke="#383A42" stroke-width="0.554419" stroke-linecap="round" stroke-linejoin="round"/>
<path d="M58.1029 95.593L58.3458 96.4774L70.8138 93.1017" stroke="#383A42" stroke-width="0.554419" stroke-linecap="round" stroke-linejoin="round"/>
<path d="M64.1799 88.0016C63.7891 87.0811 63.3985 86.1609 63.0084 85.2411" stroke="#383A42" stroke-width="0.554419" stroke-linecap="round" stroke-linejoin="round"/>
<path d="M56.9395 89.9253L55.946 87.6217" stroke="#383A42" stroke-width="0.554419" stroke-linecap="round" stroke-linejoin="round"/>
<path d="M65.5519 89.0558C65.9185 88.8124 66.2726 88.5508 66.6127 88.2721L66.639 88.2495" stroke="#383A42" stroke-width="0.554419" stroke-linecap="round" stroke-linejoin="round"/>
<path d="M56.6737 91.1084C59.786 91.523 62.9436 90.7928 65.5496 89.0558" stroke="#383A42" stroke-width="0.554419" stroke-linecap="round" stroke-linejoin="round"/>
<path d="M70.8148 91.5157L68.4615 92.1342L68.6326 92.7551" stroke="#383A42" stroke-width="0.554419" stroke-linecap="round" stroke-linejoin="round"/>
<path d="M65.5501 89.0558C67.3045 89.2323 69.0589 89.4079 70.8133 89.5828" stroke="#383A42" stroke-width="0.554419" stroke-linecap="round" stroke-linejoin="round"/>
<path d="M9.80122 69.504L3.52161 101.881H4.53342L10.8986 69.504" stroke="#383A42" stroke-width="0.554419" stroke-linecap="round" stroke-linejoin="round"/>
<path d="M13.4114 69.504L15.6187 101.881H16.8256L14.5213 69.504" stroke="#383A42" stroke-width="0.554419" stroke-linecap="round" stroke-linejoin="round"/>
<path d="M35.2332 69.504L29.4624 101.881H30.6407L36.3774 69.504" stroke="#383A42" stroke-width="0.554419" stroke-linecap="round" stroke-linejoin="round"/>
<path d="M60.1038 38.903C61.5377 38.6089 62.9681 39.2581 63.6127 40.4545C64.2503 41.634 63.9549 43.0329 63.2294 43.8709C62.1434 45.1307 59.8917 45.3523 58.119 44.0563" stroke="#383A42" stroke-width="0.554419" stroke-linecap="round" stroke-linejoin="round"/>
<path d="M24.5557 44.1689C25.107 43.9601 25.6963 43.868 26.2857 43.8986C26.8751 43.9292 27.4515 44.0817 27.9778 44.3465C28.2732 44.5006 28.5448 44.696 28.7843 44.9266C28.9673 45.1035 29.1282 45.3017 29.2634 45.5169C29.5546 45.9918 29.7236 46.5304 29.7557 47.0853C29.7877 47.6402 29.6817 48.1944 29.447 48.6992C29.4288 48.7376 29.4094 48.7749 29.39 48.8123C29.2572 49.0642 29.0916 49.2977 28.8972 49.5066C27.9995 50.4769 26.5086 50.9553 24.9743 50.6183" stroke="#383A42" stroke-width="0.554419" stroke-linecap="round" stroke-linejoin="round"/>
<path d="M30.362 49.0759L30.0414 44.0028L29.9867 43.1671C29.9513 42.6322 29.9182 42.0962 29.8829 41.5613C32.135 42.1577 34.5221 42.0064 36.6792 41.1304L37.2576 50.0881C36.2792 50.4904 35.245 50.7435 34.1902 50.839C34.1161 50.8469 34.0419 50.8525 33.9621 50.8582C32.7823 50.9411 31.5969 50.8264 30.4555 50.5189C30.4464 50.3617 30.4361 50.2068 30.4247 50.0507L30.3631 49.0759" stroke="#383A42" stroke-width="0.554419" stroke-linecap="round" stroke-linejoin="round"/>
<path d="M29.8787 41.5591C30.9668 41.0652 32.1389 40.7786 33.3339 40.7144C33.5621 40.7019 33.7902 40.6985 34.0092 40.7019C34.9137 40.7181 35.8113 40.8617 36.6751 41.1283" stroke="#383A42" stroke-width="0.554419" stroke-linecap="round" stroke-linejoin="round"/>
<path d="M29.9826 43.1674C29.5617 43.0917 29.1274 43.1692 28.7595 43.3858C28.3917 43.6023 28.1151 43.9432 27.9807 44.3458" stroke="#383A42" stroke-width="0.554419" stroke-linecap="round" stroke-linejoin="round"/>
<path d="M30.0345 44.0028C29.7838 43.9874 29.5345 44.049 29.3204 44.1792C29.0524 44.3513 28.8613 44.6189 28.7866 44.9267" stroke="#383A42" stroke-width="0.554419" stroke-linecap="round" stroke-linejoin="round"/>
<path d="M29.4713 48.8432C29.5881 48.9238 29.7177 48.9846 29.8546 49.023C30.0199 49.0733 30.1935 49.0914 30.3657 49.0762" stroke="#383A42" stroke-width="0.554419" stroke-linecap="round" stroke-linejoin="round"/>
<path d="M28.9011 49.5059C29.0846 49.7045 29.3127 49.8575 29.567 49.9524C29.8213 50.0473 30.0945 50.0815 30.3646 50.0521" stroke="#383A42" stroke-width="0.554419" stroke-linecap="round" stroke-linejoin="round"/>
<path d="M129.092 58.4666C128.508 61.6941 127.923 64.922 127.338 68.1502H105.01L104.782 69.5073L103.96 74.318H102.901C100.544 74.3293 98.1863 74.3391 95.8289 74.3474L91.8911 74.3644L89.5219 74.3745L93.2372 59.3L109.175 57.0044C109.303 56.7624 109.43 56.5215 109.557 56.2817" stroke="#383A42" stroke-width="0.554419" stroke-linecap="round" stroke-linejoin="round"/>
<path d="M102.319 77.9156C102.023 79.7386 101.727 81.5608 101.432 83.3822C101.261 84.4377 101.09 85.4932 100.919 86.5486C100.773 87.442 100.627 88.3366 100.482 89.2322C100.199 90.9888 99.9147 92.7447 99.6288 94.4998" stroke="#383A42" stroke-width="0.554419" stroke-linecap="round" stroke-linejoin="round"/>
<path d="M102.902 74.3184L102.32 77.9112" stroke="#383A42" stroke-width="0.554419" stroke-linecap="round" stroke-linejoin="round"/>
<path d="M95.8266 74.3184C95.826 74.3293 95.826 74.3403 95.8266 74.3512L95.352 79.0455C95.0242 82.2873 94.6972 85.5291 94.371 88.7709C94.1725 90.7258 93.9748 92.6819 93.7778 94.639" stroke="#383A42" stroke-width="0.554419" stroke-linecap="round" stroke-linejoin="round"/>
<path d="M102.318 77.9144C102.94 78.8666 103.561 79.8188 104.181 80.7709L107.22 85.4301" stroke="#383A42" stroke-width="0.554419" stroke-linecap="round" stroke-linejoin="round"/>
<path d="M100.918 86.5441L103.559 89.9604" stroke="#383A42" stroke-width="0.554419" stroke-linecap="round" stroke-linejoin="round"/>
<path d="M91.8869 74.4673L95.3501 79.0451" stroke="#383A42" stroke-width="0.554419" stroke-linecap="round" stroke-linejoin="round"/>
<path d="M84.5321 101.284L91.2725 101.277L98.9974 101.27C99.8172 99.4873 100.108 97.5099 99.8347 95.5694C99.7848 95.208 99.7159 94.8494 99.6282 94.4951C98.7391 94.9921 97.7406 95.2655 96.7202 95.2911C95.6998 95.3167 94.6886 95.0939 93.7752 94.6421C93.5733 94.8682 93.3703 95.0944 93.1672 95.3206C92.5695 95.9863 91.9706 96.652 91.3706 97.3177L84.6952 99.0739C84.4413 99.1568 84.2212 99.3187 84.0675 99.5354C83.9137 99.7522 83.8346 100.012 83.8419 100.277C83.8575 100.49 83.9295 100.696 84.0507 100.872C84.1718 101.049 84.3379 101.191 84.5321 101.284Z" stroke="#383A42" stroke-width="0.554419" stroke-linecap="round" stroke-linejoin="round"/>
<path d="M98.9978 101.269L99.1735 101.885L84.1994 101.876C84.3134 101.678 84.4195 101.479 84.5325 101.283" stroke="#383A42" stroke-width="0.554419" stroke-linecap="round" stroke-linejoin="round"/>
<path d="M93.1968 95.3457C93.6207 95.5903 94.0692 95.7904 94.5349 95.9428C95.1665 96.1505 95.825 96.267 96.4901 96.2889C97.6477 96.3267 98.7968 96.0796 99.8346 95.5696" stroke="#383A42" stroke-width="0.554419" stroke-linecap="round" stroke-linejoin="round"/>
<path d="M94.5055 96.0267L92.2081 98.6164L90.5347 99.1038V100.405L91.2727 101.271" stroke="#383A42" stroke-width="0.554419" stroke-linecap="round" stroke-linejoin="round"/>
<path d="M110.406 87.9093C109.873 87.2741 109.26 86.71 108.581 86.231C108.445 86.1349 108.311 86.0467 108.18 85.9653C107.87 85.769 107.549 85.5908 107.218 85.4315C107.027 86.4246 106.593 87.3562 105.955 88.1448C105.317 88.9333 104.493 89.5549 103.557 89.955C103.6 90.2547 103.644 90.5532 103.686 90.8529C103.815 91.7357 103.942 92.6182 104.067 93.5003C103.083 95.5675 102.1 97.6332 101.119 99.6974C101.02 99.9432 101.003 100.214 101.071 100.47C101.139 100.726 101.288 100.954 101.497 101.119C101.671 101.246 101.876 101.324 102.09 101.347C102.305 101.369 102.522 101.335 102.719 101.248L107.066 96.1386C108.404 94.5644 109.742 92.9918 111.078 91.4206" stroke="#383A42" stroke-width="0.554419" stroke-linecap="round" stroke-linejoin="round"/>
<path d="M111.213 92.1825L102.963 101.881C102.881 101.67 102.8 101.459 102.719 101.248" stroke="#383A42" stroke-width="0.554419" stroke-linecap="round" stroke-linejoin="round"/>
<path d="M112.036 90.276L112.619 90.5384L112.185 91.1128" stroke="#383A42" stroke-width="0.554419" stroke-linecap="round" stroke-linejoin="round"/>
<path d="M103.731 90.853C104.823 90.4673 105.801 89.8189 106.577 88.966C107.354 88.1131 107.905 87.0824 108.18 85.9665" stroke="#383A42" stroke-width="0.554419" stroke-linecap="round" stroke-linejoin="round"/>
<path d="M105.097 90.2996L105.614 93.7115L104.91 95.2924L105.914 96.1327L107.056 96.1293" stroke="#383A42" stroke-width="0.554419" stroke-linecap="round" stroke-linejoin="round"/>
<path d="M94.3671 88.7745C96.3276 89.4636 98.4383 89.6197 100.48 89.2268" stroke="#383A42" stroke-width="0.554419" stroke-linecap="round" stroke-linejoin="round"/>
<path d="M101.432 83.3826C101.645 83.2334 101.863 83.0728 102.082 82.8975C102.864 82.2743 103.569 81.561 104.181 80.7726" stroke="#383A42" stroke-width="0.554419" stroke-linecap="round" stroke-linejoin="round"/>
<path d="M127.338 68.1509H133.771" stroke="#383A42" stroke-width="0.554419" stroke-linecap="round" stroke-linejoin="round"/>
<path d="M104.797 69.504H133.771V68.147C136.07 61.1575 138.369 54.1668 140.668 47.175H139.038" stroke="#383A42" stroke-width="0.554419" stroke-linecap="round" stroke-linejoin="round"/>
<path d="M133.771 69.504L140.052 101.881H139.04L132.674 69.504" stroke="#383A42" stroke-width="0.554419" stroke-linecap="round" stroke-linejoin="round"/>
<path d="M130.162 69.504L127.955 101.881H126.747L129.052 69.504" stroke="#383A42" stroke-width="0.554419" stroke-linecap="round" stroke-linejoin="round"/>
<path d="M108.339 69.504L112.042 90.2793L112.191 91.1161L114.11 101.881H112.933L111.213 92.1825L111.078 91.4203L110.455 87.901L107.196 69.504" stroke="#383A42" stroke-width="0.554419" stroke-linecap="round" stroke-linejoin="round"/>
<path d="M131.531 45.3238C130.125 45.2684 128.652 45.1644 127.118 45.0004C125.421 44.8172 123.804 44.5786 122.269 44.2981C121.357 44.1315 120.476 43.9525 119.627 43.761C119.348 43.6988 119.071 43.6343 118.798 43.5699C118.248 43.4402 117.712 43.3056 117.191 43.1661C117.132 43.2068 117.064 43.2532 116.99 43.3109C116.225 43.8848 115.629 44.6518 115.265 45.5318C114.901 46.4118 114.782 47.3726 114.92 48.3138C114.932 48.4066 114.947 48.4869 114.96 48.5513C115.47 48.7244 115.998 48.8906 116.549 49.0636C117.174 49.2547 117.826 49.4425 118.504 49.6223C119.464 49.8767 120.476 50.1165 121.536 50.3336C122.415 50.5134 123.329 50.6728 124.274 50.821C128.823 51.5109 133.444 51.6204 138.021 51.1467C138.48 49.8563 138.82 48.5273 139.037 47.1762C139.28 45.6683 139.368 44.1398 139.298 42.6143C139.107 38.6897 137.902 34.8797 135.798 31.5498C133.675 30.4619 131.41 29.6711 129.068 29.1999C128.355 29.0563 127.667 28.9511 127.007 28.8742C126.61 29.3678 126.086 29.7466 125.491 29.9708C124.896 30.1951 124.251 30.2565 123.623 30.1487C122.013 29.8535 121.265 28.5067 121.171 28.3314C118.31 28.0904 115.429 28.2734 112.622 28.8742L103.557 34.0762L85.4608 35.5689L83.8387 35.7035C83.8011 35.794 83.76 35.8935 83.7247 36.0032C83.4349 36.7746 83.2858 37.591 83.2843 38.4142C83.284 39.5086 83.5418 40.5879 84.0372 41.5659C84.0965 41.679 84.1513 41.7865 84.2026 41.8758L85.9456 41.7853L104.184 40.8377L111.731 38.4142C110.691 44.3633 109.652 50.3113 108.613 56.2582C108.898 56.2718 109.215 56.2797 109.561 56.2763C112.425 56.2434 115.224 55.4174 117.64 53.8913C117.928 52.4664 118.217 51.0419 118.507 49.6177" stroke="#383A42" stroke-width="0.554419" stroke-linecap="round" stroke-linejoin="round"/>
<path d="M131.531 45.326C131.725 43.6674 131.92 42.0046 132.115 40.3377C132.535 41.0985 132.8 41.934 132.894 42.7963C132.988 43.6587 132.91 44.531 132.664 45.3633C132.292 45.3554 131.914 45.3429 131.531 45.3282" stroke="#383A42" stroke-width="0.554419" stroke-linecap="round" stroke-linejoin="round"/>
<path d="M121.536 50.3341C121.359 51.6731 121.184 53.012 121.009 54.351C121.997 55.5524 123.225 56.5384 124.616 57.2467C126.007 57.9551 127.531 58.3707 129.092 58.4673C129.425 58.4877 129.722 58.4922 129.97 58.4877L130.805 51.4118" stroke="#383A42" stroke-width="0.554419" stroke-linecap="round" stroke-linejoin="round"/>
<path d="M127.009 28.8746L126.712 30.7587C126.228 33.8324 125.744 36.9046 125.26 39.9753L122.852 40.88C122.658 42.0199 122.464 43.1598 122.27 44.2997" stroke="#383A42" stroke-width="0.554419" stroke-linecap="round" stroke-linejoin="round"/>
<path d="M119.627 43.7622C119.839 42.6796 120.05 41.5981 120.262 40.5177L118.95 38.4935C119.57 35.6572 120.191 32.8203 120.813 29.9825C120.933 29.4318 121.053 28.8833 121.173 28.3326" stroke="#383A42" stroke-width="0.554419" stroke-linecap="round" stroke-linejoin="round"/>
<path d="M85.463 35.5736C85.1825 37.6573 85.3458 39.7761 85.9421 41.7934" stroke="#383A42" stroke-width="0.554419" stroke-linecap="round" stroke-linejoin="round"/>
<path d="M118.821 43.553C118.814 43.553 118.805 43.5632 118.798 43.5699C117.999 44.1165 117.365 44.8677 116.964 45.7435C116.513 46.743 116.38 47.8551 116.583 48.9314" stroke="#383A42" stroke-width="0.554419" stroke-linecap="round" stroke-linejoin="round"/>
<path d="M121.084 25.8216C120.736 25.5787 120.408 25.3075 120.105 25.0107C119.42 24.3474 118.863 23.5656 118.462 22.7038C116.951 19.5215 117.5 15.7614 117.614 15.0399" stroke="#383A42" stroke-width="0.554419" stroke-linecap="round" stroke-linejoin="round"/>
<path d="M129.169 25.4542C128.594 25.8318 127.979 26.1455 127.334 26.3895C126.134 26.8418 124.497 27.172 122.771 26.6394C122.364 26.5138 121.971 26.3459 121.6 26.1384C121.414 26.0366 121.242 25.9281 121.086 25.8218" stroke="#383A42" stroke-width="0.554419" stroke-linecap="round" stroke-linejoin="round"/>
<path d="M131.724 10.1513C129.84 8.30914 126.18 7.15452 122.541 7.68151C120.944 7.91333 118.693 8.23903 117.408 10.0846C116.66 11.1623 115.886 13.2703 116.995 14.5425C117.169 14.7424 117.378 14.9108 117.611 15.0401C119.05 15.8543 121.345 15.3443 121.812 14.443C121.943 14.1874 121.876 14.0042 122.047 13.8561C122.602 13.3743 124.612 14.1693 125.641 15.3793C127.849 17.9803 124.751 21.7846 126.987 24.1888C127.574 24.8136 128.333 25.2533 129.169 25.4531C129.652 25.5755 130.159 25.5594 130.632 25.4068C130.948 25.2937 131.832 24.856 132.924 20.6085C133.351 18.9482 133.666 17.2613 133.866 15.5592C133.874 14.5875 133.702 13.6227 133.358 12.7128C133.294 12.5409 133.221 12.3663 133.137 12.1892C132.872 11.6442 132.551 11.1277 132.18 10.6478C132.039 10.4725 131.887 10.3066 131.724 10.1513V10.1513Z" stroke="#383A42" stroke-width="0.554419" stroke-linecap="round" stroke-linejoin="round"/>
<path d="M127.344 26.4166C127.234 27.2354 127.125 28.0545 127.014 28.874" stroke="#383A42" stroke-width="0.554419" stroke-linecap="round" stroke-linejoin="round"/>
<path d="M121.599 26.1388C121.457 26.8716 121.316 27.6025 121.173 28.3316" stroke="#383A42" stroke-width="0.554419" stroke-linecap="round" stroke-linejoin="round"/>
<path d="M118.462 22.704C121.122 21.9904 123.139 22.1634 123.436 22.9087C123.695 23.5725 122.62 24.7667 121.085 25.8218" stroke="#383A42" stroke-width="0.554419" stroke-linecap="round" stroke-linejoin="round"/>
<path d="M131.724 10.1517L132.431 9.7254C132.851 10.0271 133.206 10.4083 133.477 10.847C133.747 11.2856 133.927 11.7731 134.006 12.2812L133.354 12.7132" stroke="#383A42" stroke-width="0.554419" stroke-linecap="round" stroke-linejoin="round"/>
<path d="M132.43 9.72561C134.99 6.96176 136.316 6.74577 137.046 7.01152C138.588 7.57696 137.795 10.4822 140.091 13.7323C141.934 16.3333 144.123 16.8546 143.864 17.6508C143.531 18.6685 139.675 19.2747 137.752 17.5467C135.88 15.8606 136.422 12.4759 134.9 12.14C134.594 12.0863 134.279 12.1361 134.005 12.2814" stroke="#383A42" stroke-width="0.554419" stroke-linecap="round" stroke-linejoin="round"/>
<path d="M120.809 29.9766C121.471 30.6465 122.314 31.1113 123.238 31.3144C124.426 31.5566 125.663 31.3587 126.714 30.758" stroke="#383A42" stroke-width="0.554419" stroke-linecap="round" stroke-linejoin="round"/>
<path d="M83.7212 36.0079C81.9485 35.585 80.3127 36.3201 79.8063 37.5256C79.2998 38.7311 80.1348 39.9999 80.2443 40.156C81.0188 41.2688 82.4892 41.8195 84.0337 41.5707" stroke="#383A42" stroke-width="0.554419" stroke-linecap="round" stroke-linejoin="round"/>
<path d="M116.956 43.2636C115.929 42.2209 114.38 41.9846 113.222 42.6326C112.758 42.9024 112.378 43.2924 112.121 43.7607C111.864 44.2289 111.741 44.7576 111.764 45.2901C111.836 46.7602 113.133 48.0947 114.919 48.3141" stroke="#383A42" stroke-width="0.554419" stroke-linecap="round" stroke-linejoin="round"/>
<path d="M73.2165 92.479V101.887H70.8153V93.1021V92.1669V91.5155V89.5806V88.7313V50.8845H73.2165V88.9134V91.5291V92.479Z" stroke="#383A42" stroke-width="0.554419" stroke-linecap="round" stroke-linejoin="round"/>
<path d="M25.855 10.7287C25.9308 10.2234 25.7487 9.77784 25.4483 9.7336C25.1479 9.68936 24.8431 10.0632 24.7673 10.5685C24.6916 11.0739 24.8737 11.5194 25.1741 11.5636C25.4744 11.6079 25.7793 11.2341 25.855 10.7287Z" fill="#383A42"/>
<path d="M28.7408 10.7281C28.8166 10.2227 28.6345 9.77722 28.3341 9.73299C28.0337 9.68875 27.7289 10.0626 27.6531 10.5679C27.5774 11.0732 27.7595 11.5188 28.0599 11.563C28.3602 11.6072 28.6651 11.2334 28.7408 10.7281Z" fill="#383A42"/>
<path d="M23.7856 9.51256C24.3246 9.12769 24.9839 8.94496 25.6461 8.99688C25.9908 9.03147 26.3253 9.13291 26.6305 9.29543" stroke="#383A42" stroke-width="0.554419" stroke-linecap="round" stroke-linejoin="round"/>
<path d="M27.3454 9.1564C27.6321 8.95563 27.9751 8.84888 28.3261 8.85111C28.6772 8.85334 29.0187 8.96444 29.3029 9.16884" stroke="#383A42" stroke-width="0.554419" stroke-linecap="round" stroke-linejoin="round"/>
<path d="M122.273 18.1451C122.308 17.6354 122.09 17.2058 121.787 17.1857C121.484 17.1656 121.211 17.5626 121.176 18.0723C121.142 18.5821 121.359 19.0116 121.662 19.0317C121.965 19.0518 122.239 18.6549 122.273 18.1451Z" fill="#383A42"/>
<path d="M119.735 18.1735C119.811 17.6681 119.629 17.2226 119.328 17.1785C119.028 17.1343 118.723 17.5081 118.648 18.0135C118.572 18.5188 118.754 18.9643 119.055 19.0085C119.355 19.0527 119.66 18.6789 119.735 18.1735Z" fill="#383A42"/>
<path d="M123.73 17.1639C123.224 16.7376 122.581 16.5031 121.917 16.5024C121.571 16.5097 121.229 16.5843 120.911 16.7218" stroke="#383A42" stroke-width="0.554419" stroke-linecap="round" stroke-linejoin="round"/>
<path d="M120.219 16.9348C119.981 16.6795 119.668 16.5046 119.324 16.4344C118.98 16.3643 118.623 16.4024 118.302 16.5435" stroke="#383A42" stroke-width="0.554419" stroke-linecap="round" stroke-linejoin="round"/>
</g>
<defs>
<clipPath id="clip0_910_15352">
<rect width="144" height="102" fill="white"/>
</clipPath>
</defs>
</svg>
